SplineFontDB: 3.2
FontName: Warlock
FullName: Highlander Regular
FamilyName: Highlander
Weight: Thin
Copyright: beccaelizabeth@geocities.com made this
Version: beccaelizabeth 0200 02/09/98
ItalicAngle: 0
UnderlinePosition: 0
UnderlineWidth: 0
Ascent: 800
Descent: 200
InvalidEm: 0
sfntRevision: 0x00010000
LayerCount: 2
Layer: 0 1 "Back" 1
Layer: 1 1 "Fore" 0
XUID: [1021 690 1522831698 28587]
StyleMap: 0x0040
FSType: 0
OS2Version: 0
OS2_WeightWidthSlopeOnly: 0
OS2_UseTypoMetrics: 0
CreationTime: 781469486
ModificationTime: 1686197994
PfmFamily: 81
TTFWeight: -1
TTFWidth: 5
LineGap: 0
VLineGap: 0
Panose: 0 0 0 0 0 0 0 0 0 0
OS2TypoAscent: 749
OS2TypoAOffset: 0
OS2TypoDescent: -16
OS2TypoDOffset: 0
OS2TypoLinegap: 0
OS2WinAscent: 934
OS2WinAOffset: 0
OS2WinDescent: 233
OS2WinDOffset: 0
HheadAscent: 749
HheadAOffset: 0
HheadDescent: -16
HheadDOffset: 0
OS2SubXSize: 133
OS2SubYSize: 133
OS2SubXOff: 0
OS2SubYOff: 0
OS2SupXSize: 133
OS2SupYSize: 133
OS2SupXOff: 0
OS2SupYOff: 0
OS2StrikeYSize: 67
OS2StrikeYPos: 345
OS2CapHeight: 700
OS2XHeight: 507
OS2Vendor: 'XXXX'
OS2UnicodeRanges: 00000000.00000000.00000000.00000000
MarkAttachClasses: 1
DEI: 91125
TtTable: prep
NPUSHB
 14
 46
 46
 45
 45
 20
 20
 1
 1
 0
 0
 21
 21
 69
 1
SCANTYPE
PUSHW_1
 511
SCANCTRL
SROUND
RCVT
ROUND[Grey]
WCVTP
RTG
PUSHB_4
 2
 0
 70
 0
CALL
PUSHB_4
 3
 1
 70
 0
CALL
PUSHB_4
 4
 1
 70
 0
CALL
PUSHB_4
 5
 0
 70
 0
CALL
PUSHB_4
 6
 1
 70
 0
CALL
PUSHB_4
 7
 1
 70
 0
CALL
PUSHB_4
 8
 21
 70
 0
CALL
PUSHB_4
 9
 20
 70
 0
CALL
PUSHB_4
 10
 0
 70
 0
CALL
PUSHB_4
 11
 20
 70
 0
CALL
PUSHB_4
 12
 1
 70
 0
CALL
PUSHB_4
 13
 1
 70
 0
CALL
PUSHB_4
 14
 1
 70
 0
CALL
PUSHB_4
 15
 1
 70
 0
CALL
PUSHB_4
 16
 0
 70
 0
CALL
PUSHB_4
 17
 1
 70
 0
CALL
PUSHB_4
 18
 0
 70
 0
CALL
PUSHB_4
 19
 0
 70
 0
CALL
PUSHB_4
 22
 1
 70
 0
CALL
PUSHB_4
 23
 21
 70
 0
CALL
PUSHB_4
 24
 21
 70
 0
CALL
PUSHB_4
 25
 20
 70
 0
CALL
PUSHB_4
 26
 0
 70
 0
CALL
PUSHB_4
 27
 20
 70
 0
CALL
PUSHB_4
 28
 20
 70
 0
CALL
PUSHB_4
 29
 1
 70
 0

StartChar: .notdef
Encoding: 65536 -1 0
Width: 1218
GlyphClass: 1
Flags: W
LayerCount: 2
Fore
SplineSet
76 0 m 1,0,-1
 76 1219 l 1,1,-1
 1143 1219 l 1,2,-1
 1143 0 l 1,3,-1
 76 0 l 1,0,-1
1067 76 m 1,4,-1
 1067 1143 l 1,5,-1
 152 1143 l 1,6,-1
 152 76 l 1,7,-1
 1067 76 l 1,4,-1
EndSplineSet
EndChar

StartChar: exclam
Encoding: 33 33 4
Width: 233
GlyphClass: 1
Flags: W
LayerCount: 2
Fore
SplineSet
145 261 m 1,0,-1
 27 261 l 1,1,-1
 27 1069 l 1,2,-1
 145 1069 l 1,3,-1
 145 261 l 1,0,-1
144 117 m 1,4,-1
 28 0 l 1,5,-1
 28 212 l 1,6,-1
 144 213 l 1,7,-1
 144 117 l 1,4,-1
EndSplineSet
EndChar

StartChar: quotedbl
Encoding: 34 34 5
Width: 216
GlyphClass: 1
Flags: W
LayerCount: 2
Fore
SplineSet
125 1028 m 1,0,-1
 107 899 l 1,1,-1
 87 1029 l 1,2,-1
 107 1067 l 1,3,-1
 125 1028 l 1,0,-1
69 1028 m 1,4,-1
 51 899 l 1,5,-1
 31 1029 l 1,6,-1
 51 1067 l 1,7,-1
 69 1028 l 1,4,-1
EndSplineSet
EndChar

StartChar: numbersign
Encoding: 35 35 6
Width: 592
GlyphClass: 1
Flags: W
LayerCount: 2
Fore
SplineSet
496 871 m 1,0,-1
 399 871 l 1,1,-1
 369 732 l 1,2,-1
 408 732 l 1,3,-1
 453 660 l 1,4,-1
 353 660 l 1,5,-1
 339 603 l 1,6,-1
 261 527 l 1,7,-1
 293 660 l 1,8,-1
 183 660 l 1,9,-1
 171 607 l 1,10,-1
 89 527 l 1,11,-1
 120 660 l 1,12,-1
 79 660 l 1,13,-1
 39 732 l 1,14,-1
 137 732 l 1,15,-1
 167 871 l 1,16,-1
 123 871 l 1,17,-1
 81 943 l 1,18,-1
 185 943 l 1,19,-1
 195 993 l 1,20,-1
 269 1065 l 1,21,-1
 244 943 l 1,22,-1
 355 943 l 1,23,-1
 367 996 l 1,24,-1
 441 1065 l 1,25,-1
 415 943 l 1,26,-1
 449 943 l 1,27,-1
 496 871 l 1,0,-1
339 871 m 1,28,-1
 228 871 l 1,29,-1
 197 732 l 1,30,-1
 309 732 l 1,31,-1
 339 871 l 1,28,-1
EndSplineSet
EndChar

StartChar: dollar
Encoding: 36 36 7
Width: 490
GlyphClass: 1
Flags: W
LayerCount: 2
Fore
SplineSet
403 256 m 1,0,-1
 391 199 l 1,1,-1
 307 141 l 1,2,-1
 253 141 l 1,3,-1
 253 95 l 1,4,-1
 177 -3 l 1,5,-1
 177 141 l 1,6,-1
 121 141 l 1,7,-1
 40 196 l 1,8,-1
 24 252 l 1,9,-1
 24 296 l 1,10,-1
 144 413 l 1,11,-1
 144 260 l 1,12,-1
 177 231 l 1,13,-1
 177 467 l 1,14,-1
 133 467 l 1,15,-1
 40 539 l 1,16,-1
 27 611 l 1,17,-1
 27 752 l 1,18,-1
 73 849 l 1,19,-1
 121 869 l 1,20,-1
 177 869 l 1,21,-1
 177 909 l 1,22,-1
 253 1007 l 1,23,-1
 253 869 l 1,24,-1
 307 869 l 1,25,-1
 383 812 l 1,26,-1
 403 755 l 1,27,-1
 403 707 l 1,28,-1
 291 591 l 1,29,-1
 291 748 l 1,30,-1
 253 779 l 1,31,-1
 253 540 l 1,32,-1
 289 540 l 1,33,-1
 383 472 l 1,34,-1
 403 403 l 1,35,-1
 403 256 l 1,0,-1
177 544 m 1,36,-1
 177 780 l 1,37,-1
 144 751 l 1,38,-1
 144 585 l 1,39,-1
 177 544 l 1,36,-1
291 259 m 1,40,-1
 291 423 l 1,41,-1
 253 460 l 1,42,-1
 253 229 l 1,43,-1
 291 259 l 1,40,-1
EndSplineSet
EndChar

StartChar: percent
Encoding: 37 37 8
Width: 501
GlyphClass: 1
Flags: W
LayerCount: 2
Fore
SplineSet
212 787 m 1,0,-1
 161 747 l 1,1,-1
 77 747 l 1,2,-1
 24 787 l 1,3,-1
 24 1029 l 1,4,-1
 77 1069 l 1,5,-1
 161 1069 l 1,6,-1
 212 1029 l 1,7,-1
 212 787 l 1,0,-1
413 1068 m 1,8,-1
 97 0 l 1,9,-1
 23 0 l 1,10,-1
 339 1068 l 1,11,-1
 413 1068 l 1,8,-1
413 39 m 1,12,-1
 361 -1 l 1,13,-1
 277 -1 l 1,14,-1
 224 39 l 1,15,-1
 224 281 l 1,16,-1
 277 321 l 1,17,-1
 361 321 l 1,18,-1
 413 281 l 1,19,-1
 413 39 l 1,12,-1
144 787 m 1,20,-1
 145 1031 l 1,21,-1
 96 1031 l 1,22,-1
 96 787 l 1,23,-1
 144 787 l 1,20,-1
349 40 m 1,24,-1
 351 283 l 1,25,-1
 300 283 l 1,26,-1
 300 39 l 1,27,-1
 349 40 l 1,24,-1
EndSplineSet
EndChar

StartChar: ampersand
Encoding: 38 38 9
Width: 488
GlyphClass: 1
Flags: W
LayerCount: 2
Fore
SplineSet
460 515 m 1,0,-1
 403 445 l 1,1,-1
 403 292 l 1,2,-1
 327 185 l 1,3,-1
 249 185 l 1,4,-1
 249 87 l 1,5,-1
 176 -3 l 1,6,-1
 176 189 l 1,7,-1
 101 189 l 1,8,-1
 21 283 l 1,9,-1
 21 461 l 1,10,-1
 79 551 l 1,11,-1
 24 636 l 1,12,-1
 24 771 l 1,13,-1
 101 865 l 1,14,-1
 177 865 l 1,15,-1
 176 972 l 1,16,-1
 249 1063 l 1,17,-1
 249 867 l 1,18,-1
 324 867 l 1,19,-1
 403 745 l 1,20,-1
 291 632 l 1,21,-1
 291 756 l 1,22,-1
 249 797 l 1,23,-1
 176 797 l 1,24,-1
 136 753 l 1,25,-1
 136 621 l 1,26,-1
 173 585 l 1,27,-1
 288 585 l 1,28,-1
 232 512 l 1,29,-1
 184 512 l 1,30,-1
 136 472 l 1,31,-1
 136 304 l 1,32,-1
 173 256 l 1,33,-1
 253 256 l 1,34,-1
 288 301 l 1,35,-1
 288 515 l 1,36,-1
 460 515 l 1,0,-1
EndSplineSet
EndChar

StartChar: quotesingle
Encoding: 39 39 10
Width: 165
GlyphClass: 1
Flags: W
LayerCount: 2
Fore
SplineSet
69 1028 m 1,0,-1
 51 899 l 1,1,-1
 31 1029 l 1,2,-1
 51 1067 l 1,3,-1
 69 1028 l 1,0,-1
EndSplineSet
EndChar

StartChar: parenleft
Encoding: 40 40 11
Width: 354
GlyphClass: 1
Flags: W
LayerCount: 2
Fore
SplineSet
277 -71 m 1,0,1
 262 -71 262 -71 212 -27 c 0,2,3
 139 38 139 38 91 153 c 0,4,5
 60 229 60 229 42.5 326.5 c 128,-1,6
 25 424 25 424 25 535 c 0,7,8
 25 758 25 758 91 913 c 0,9,10
 136 1025 136 1025 212 1091 c 0,11,12
 260 1135 260 1135 277 1135 c 1,13,14
 272 1126 272 1126 269 1119 c 0,15,16
 258 1095 258 1095 249 1071 c 0,17,18
 217 984 217 984 197 872 c 0,19,20
 169 716 169 716 169 535 c 0,21,22
 169 356 169 356 197 196 c 0,23,24
 217 87 217 87 249 -4 c 0,25,26
 258 -29 258 -29 273 -61 c 0,27,28
 274 -66 274 -66 277 -71 c 1,0,1
EndSplineSet
EndChar

StartChar: parenright
Encoding: 41 41 12
Width: 360
GlyphClass: 1
Flags: W
LayerCount: 2
Fore
SplineSet
275 535 m 0,0,1
 275 311 275 311 211 155 c 0,2,3
 167 44 167 44 89 -25 c 0,4,5
 42 -68 42 -68 24 -71 c 1,6,7
 28 -62 28 -62 31 -55 c 0,8,9
 43 -27 43 -27 51 -5 c 0,10,11
 83 87 83 87 103 195 c 0,12,13
 131 355 131 355 131 535 c 0,14,15
 131 726 131 726 104 871 c 0,16,17
 87 975 87 975 52 1069 c 0,18,19
 43 1094 43 1094 28 1125 c 0,20,21
 27 1129 27 1129 24 1135 c 1,22,23
 41 1135 41 1135 88 1092 c 0,24,25
 164 1024 164 1024 209 915 c 0,26,27
 275 756 275 756 275 535 c 0,0,1
EndSplineSet
EndChar

StartChar: asterisk
Encoding: 42 42 13
Width: 496
GlyphClass: 1
Flags: W
LayerCount: 2
Fore
SplineSet
403 859 m 1,0,-1
 269 859 l 1,1,-1
 331 797 l 1,2,-1
 332 729 l 1,3,-1
 240 817 l 1,4,-1
 240 689 l 1,5,-1
 191 739 l 1,6,-1
 191 819 l 1,7,-1
 95 725 l 1,8,-1
 95 793 l 1,9,-1
 157 857 l 1,10,-1
 79 857 l 1,11,-1
 27 907 l 1,12,-1
 151 907 l 1,13,-1
 97 960 l 1,14,-1
 99 1029 l 1,15,-1
 191 937 l 1,16,-1
 191 1065 l 1,17,-1
 239 1017 l 1,18,-1
 239 937 l 1,19,-1
 327 1024 l 1,20,-1
 327 953 l 1,21,-1
 279 907 l 1,22,-1
 353 907 l 1,23,-1
 403 859 l 1,0,-1
EndSplineSet
EndChar

StartChar: plus
Encoding: 43 43 14
Width: 556
GlyphClass: 1
Flags: W
LayerCount: 2
Fore
SplineSet
468 371 m 1,0,-1
 276 371 l 1,1,-1
 276 176 l 1,2,-1
 204 244 l 1,3,-1
 204 371 l 1,4,-1
 99 371 l 1,5,-1
 29 439 l 1,6,-1
 205 439 l 1,7,-1
 205 637 l 1,8,-1
 272 573 l 1,9,-1
 271 439 l 1,10,-1
 401 439 l 1,11,-1
 468 371 l 1,0,-1
EndSplineSet
EndChar

StartChar: comma
Encoding: 44 44 15
Width: 229
GlyphClass: 1
Flags: W
LayerCount: 2
Fore
SplineSet
107 -8 m 1,0,-1
 44 -71 l 1,1,-1
 44 48 l 1,2,-1
 83 48 l 2,3,4
 96 47 96 47 104 36 c 2,5,-1
 107 27 l 1,6,-1
 107 -8 l 1,0,-1
EndSplineSet
EndChar

StartChar: hyphen
Encoding: 45 45 16
AltUni2: 0000ad.ffffffff.0 0000ad.ffffffff.0
Width: 541
GlyphClass: 1
Flags: W
LayerCount: 2
Fore
SplineSet
459 299 m 1,0,-1
 92 299 l 1,1,-1
 27 365 l 1,2,-1
 393 365 l 1,3,-1
 459 299 l 1,0,-1
EndSplineSet
EndChar

StartChar: period
Encoding: 46 46 17
Width: 233
GlyphClass: 1
Flags: W
LayerCount: 2
Fore
SplineSet
112 36 m 256,0,1
 112 21 112 21 101.5 10.5 c 128,-1,2
 91 0 91 0 76 0 c 256,3,4
 61 0 61 0 50.5 10.5 c 128,-1,5
 40 21 40 21 40 36 c 256,6,7
 40 51 40 51 50.5 61.5 c 128,-1,8
 61 72 61 72 76 72 c 256,9,10
 91 72 91 72 101.5 61.5 c 128,-1,11
 112 51 112 51 112 36 c 256,0,1
EndSplineSet
EndChar

StartChar: slash
Encoding: 47 47 18
Width: 550
GlyphClass: 1
Flags: W
LayerCount: 2
Fore
SplineSet
459 1068 m 1,0,-1
 108 0 l 1,1,-1
 25 0 l 1,2,-1
 376 1068 l 1,3,-1
 459 1068 l 1,0,-1
EndSplineSet
EndChar

StartChar: zero
Encoding: 48 48 19
Width: 452
GlyphClass: 1
InSpiro: 1
Flags: W
LayerCount: 2
Fore
SplineSet
342.666992188 104 m 1,0,-1
 275.465820312 20.9326171875 l 1,1,-1
 168.1328125 20.9326171875 l 1,2,-1
 100.932617188 104 l 1,3,-1
 100.932617188 683.598632812 l 1,4,-1
 168.1328125 766.666992188 l 1,5,-1
 275.465820312 766.666992188 l 1,6,-1
 342.666992188 683.598632812 l 1,7,-1
 342.666992188 104 l 1,0,-1
  Spiro
    342.667 104 v
    275.467 20.9333 v
    168.133 20.9333 v
    100.933 104 v
    100.933 683.6 v
    168.133 766.667 v
    275.467 766.667 v
    342.667 683.6 v
    0 0 z
  EndSpiro
250.265625 99.3330078125 m 1,8,-1
 250.265625 683.598632812 l 1,9,-1
 220.399414062 717.19921875 l 1,10,-1
 191.465820312 683.598632812 l 1,11,-1
 191.465820312 99.3330078125 l 1,12,-1
 220.399414062 66.6669921875 l 1,13,-1
 250.265625 99.3330078125 l 1,8,-1
  Spiro
    250.267 99.3333 v
    250.267 683.6 v
    220.4 717.2 v
    191.467 683.6 v
    191.467 99.3333 v
    220.4 66.6667 v
    0 0 z
  EndSpiro
EndSplineSet
EndChar

StartChar: one
Encoding: 49 49 20
Width: 301
GlyphClass: 1
InSpiro: 1
Flags: WO
LayerCount: 2
Fore
SplineSet
191.615234375 93.83984375 m 1,0,-1
 115 5.5546875 l 1,1,-1
 115 642 l 1,2,-1
 67.09375 701.280273438 l 1,3,-1
 191.615234375 698.365234375 l 1,4,-1
 191.615234375 93.83984375 l 1,0,-1
  Spiro
    191.615 93.8396 v
    115 5.55493 v
    115 642 v
    67.094 701.28 v
    191.615 698.365 v
    0 0 z
  EndSpiro
EndSplineSet
EndChar

StartChar: two
Encoding: 50 50 21
Width: 300
GlyphClass: 1
Flags: W
LayerCount: 2
Fore
SplineSet
221 0 m 5,0,-1
 38.099609375 0.5 l 1,1,-1
 38.099609375 216.5 l 1,2,-1
 176.69921875 421.69921875 l 1,3,-1
 176.69921875 613.399414062 l 1,4,-1
 153 645 l 1,5,-1
 126.299804688 615.19921875 l 1,6,-1
 126.299804688 536.899414062 l 1,7,-1
 39.8994140625 411.799804688 l 1,8,-1
 39.8994140625 613.399414062 l 1,9,-1
 99.3994140625 699.69921875 l 1,10,-1
 202.899414062 699.69921875 l 1,11,-1
 262.19921875 613.399414062 l 1,12,-1
 262.19921875 383.899414062 l 1,13,-1
 129 185.899414062 l 1,14,-1
 128 77 l 1,15,-1
 274.099609375 77 l 5,16,-1
 221 0 l 5,0,-1
EndSplineSet
EndChar

StartChar: three
Encoding: 51 51 22
Width: 301
GlyphClass: 1
InSpiro: 1
Flags: W
LayerCount: 2
Fore
SplineSet
261.956054688 89.423828125 m 1,0,-1
 200.395507812 2.591796875 l 1,1,-1
 99.9560546875 2.591796875 l 1,2,-1
 39.69140625 92.015625 l 1,3,-1
 39.69140625 141.263671875 l 1,4,-1
 125.227539062 228.095703125 l 1,5,-1
 125.875976562 92.015625 l 1,6,-1
 153.091796875 57.0244140625 l 1,7,-1
 177.067382812 92.015625 l 1,8,-1
 177.067382812 303.911132812 l 1,9,-1
 154.387695312 337.608398438 l 1,10,-1
 118.099609375 338.256835938 l 1,11,-1
 118.099609375 405.6484375 l 1,12,-1
 150.5 405 l 1,13,-1
 177.067382812 440.639648438 l 1,14,-1
 177.067382812 606.528320312 l 1,15,-1
 150.5 642.81640625 l 1,16,-1
 125.875976562 609.119140625 l 1,17,-1
 125.875976562 552.744140625 l 1,18,-1
 39.0439453125 466.560546875 l 1,19,-1
 39.69140625 609.119140625 l 1,20,-1
 99.9560546875 694.65625 l 1,21,-1
 201.043945312 694.65625 l 1,22,-1
 260.66015625 604.583984375 l 1,23,-1
 260.66015625 440.639648438 l 1,24,-1
 224.372070312 362.879882812 l 1,25,-1
 261.956054688 289.008789062 l 1,26,-1
 261.956054688 89.423828125 l 1,0,-1
  Spiro
    261.956 89.424 v
    200.396 2.592 v
    99.956 2.592 v
    39.692 92.016 v
    39.692 141.264 v
    125.228 228.096 v
    125.876 92.016 v
    153.092 57.024 v
    177.068 92.016 v
    177.068 303.912 v
    154.388 337.608 v
    118.1 338.256 v
    118.1 405.648 v
    150.5 405 v
    177.068 440.64 v
    177.068 606.528 v
    150.5 642.816 v
    125.876 609.12 v
    125.876 552.744 v
    39.044 466.56 v
    39.692 609.12 v
    99.956 694.656 v
    201.044 694.656 v
    260.66 604.584 v
    260.66 440.64 v
    224.372 362.88 v
    261.956 289.008 v
    0 0 z
  EndSpiro
EndSplineSet
EndChar

StartChar: four
Encoding: 52 52 23
Width: 304
GlyphClass: 1
Flags: W
LayerCount: 2
Fore
SplineSet
295.360351562 297.439453125 m 5,0,-1
 228.799804688 297.439453125 l 5,1,-1
 228.799804688 83.6796875 l 5,2,-1
 143.6796875 -0.80078125 l 5,3,-1
 143.6796875 300 l 5,4,-1
 64.9599609375 300 l 5,5,-1
 8.6396484375 378.080078125 l 5,6,-1
 8.6396484375 680.16015625 l 5,7,-1
 93.1201171875 579.040039062 l 5,8,-1
 93.1201171875 377.439453125 l 5,9,-1
 144.3203125 377.439453125 l 5,10,-1
 144.3203125 680.16015625 l 5,11,-1
 228.16015625 579.040039062 l 5,12,-1
 228.16015625 378.080078125 l 5,13,-1
 295.360351562 297.439453125 l 5,0,-1
EndSplineSet
EndChar

StartChar: five
Encoding: 53 53 24
Width: 300
GlyphClass: 1
Flags: W
LayerCount: 2
Fore
SplineSet
260.719726562 684.83984375 m 1,0,-1
 174.959960938 599.080078125 l 1,1,-1
 125.040039062 599.080078125 l 1,2,-1
 125.040039062 424.360351562 l 1,3,-1
 171.120117188 425 l 1,4,-1
 258.16015625 337.959960938 l 1,5,-1
 259.440429688 84.5205078125 l 1,6,-1
 198.639648438 1.3203125 l 1,7,-1
 104.559570312 1.3203125 l 1,8,-1
 39.919921875 79.400390625 l 1,9,-1
 39.919921875 160.6796875 l 1,10,-1
 125.040039062 245.799804688 l 1,11,-1
 125.040039062 94.1201171875 l 1,12,-1
 149.360351562 50.599609375 l 1,13,-1
 173.040039062 91.560546875 l 1,14,-1
 173.040039062 345 l 1,15,-1
 39.2802734375 344.360351562 l 1,16,-1
 39.2802734375 684.83984375 l 1,17,-1
 260.719726562 684.83984375 l 1,0,-1
EndSplineSet
EndChar

StartChar: six
Encoding: 54 54 25
Width: 299
GlyphClass: 1
Flags: W
LayerCount: 2
Fore
SplineSet
260.219726562 88.4794921875 m 1,0,-1
 200.059570312 2.080078125 l 1,1,-1
 101.5 2.080078125 l 1,2,-1
 38.7802734375 85.919921875 l 1,3,-1
 38.7802734375 321.439453125 l 1,4,-1
 38.7802734375 598.559570312 l 1,5,-1
 101.5 685.599609375 l 1,6,-1
 198.780273438 685.599609375 l 1,7,-1
 260.219726562 596 l 1,8,-1
 260.219726562 546.719726562 l 1,9,-1
 174.459960938 459.040039062 l 1,10,-1
 174.459960938 600.479492188 l 1,11,-1
 148.860351562 635.6796875 l 1,12,-1
 124.540039062 598.559570312 l 1,13,-1
 124.540039062 372.639648438 l 1,14,-1
 198.780273438 372.639648438 l 1,15,-1
 260.219726562 288.16015625 l 1,16,-1
 260.219726562 88.4794921875 l 1,0,-1
178.299804688 85.919921875 m 1,17,-1
 178.299804688 288.16015625 l 1,18,-1
 150.780273438 323.359375 l 1,19,-1
 124.540039062 323.359375 l 1,20,-1
 124.540039062 85.919921875 l 1,21,-1
 148.860351562 52 l 1,22,-1
 178.299804688 85.919921875 l 1,17,-1
EndSplineSet
EndChar

StartChar: seven
Encoding: 55 55 26
Width: 452
GlyphClass: 1
Flags: W
LayerCount: 2
Fore
SplineSet
365 636 m 1,0,-1
 269 423 l 1,1,-1
 269 131 l 1,2,-1
 137 -3 l 1,3,-1
 137 477 l 1,4,-1
 232 685 l 1,5,-1
 232 957 l 1,6,-1
 156 957 l 1,7,-1
 156 808 l 1,8,-1
 23 644 l 1,9,-1
 23 959 l 1,10,-1
 111 1067 l 1,11,-1
 365 1067 l 1,12,-1
 365 636 l 1,0,-1
EndSplineSet
EndChar

StartChar: eight
Encoding: 56 56 27
Width: 504
GlyphClass: 1
Flags: W
LayerCount: 2
Fore
SplineSet
413 136 m 1,0,-1
 305 -1 l 1,1,-1
 147 -1 l 1,2,-1
 23 132 l 1,3,-1
 23 423 l 1,4,-1
 88 547 l 1,5,-1
 23 664 l 1,6,-1
 23 935 l 1,7,-1
 121 1065 l 1,8,-1
 307 1065 l 1,9,-1
 413 939 l 1,10,-1
 413 641 l 1,11,-1
 345 547 l 1,12,-1
 413 427 l 1,13,-1
 413 136 l 1,0,-1
261 641 m 1,14,-1
 261 935 l 1,15,-1
 219 992 l 1,16,-1
 175 939 l 1,17,-1
 175 695 l 1,18,-1
 229 591 l 1,19,-1
 261 641 l 1,14,-1
264 128 m 1,20,-1
 264 403 l 1,21,-1
 208 503 l 1,22,-1
 176 453 l 1,23,-1
 176 125 l 1,24,-1
 219 79 l 1,25,-1
 264 128 l 1,20,-1
EndSplineSet
EndChar

StartChar: nine
Encoding: 57 57 28
Width: 457
GlyphClass: 1
Flags: W
LayerCount: 2
Fore
SplineSet
368 517 m 1,0,-1
 369 133 l 1,1,-1
 273 -3 l 1,2,-1
 120 -3 l 1,3,-1
 24 128 l 1,4,-1
 24 205 l 1,5,-1
 157 397 l 1,6,-1
 157 128 l 1,7,-1
 199 80 l 1,8,-1
 235 132 l 1,9,-1
 235 509 l 1,10,-1
 139 509 l 1,11,-1
 23 673 l 1,12,-1
 23 925 l 1,13,-1
 123 1065 l 1,14,-1
 273 1065 l 1,15,-1
 368 923 l 1,16,-1
 368 517 l 1,0,-1
235 587 m 1,17,-1
 235 929 l 1,18,-1
 199 984 l 1,19,-1
 156 932 l 1,20,-1
 156 643 l 1,21,-1
 193 587 l 1,22,-1
 235 587 l 1,17,-1
EndSplineSet
EndChar

StartChar: colon
Encoding: 58 58 29
Width: 220
GlyphClass: 1
Flags: W
LayerCount: 2
Fore
SplineSet
112 420 m 256,0,1
 112 405 112 405 101.5 394.5 c 128,-1,2
 91 384 91 384 76 384 c 256,3,4
 61 384 61 384 50.5 394.5 c 128,-1,5
 40 405 40 405 40 420 c 256,6,7
 40 435 40 435 50.5 445.5 c 128,-1,8
 61 456 61 456 76 456 c 256,9,10
 91 456 91 456 101.5 445.5 c 128,-1,11
 112 435 112 435 112 420 c 256,0,1
112 36 m 256,12,13
 112 21 112 21 101.5 10.5 c 128,-1,14
 91 0 91 0 76 0 c 256,15,16
 61 0 61 0 50.5 10.5 c 128,-1,17
 40 21 40 21 40 36 c 256,18,19
 40 51 40 51 50.5 61.5 c 128,-1,20
 61 72 61 72 76 72 c 256,21,22
 91 72 91 72 101.5 61.5 c 128,-1,23
 112 51 112 51 112 36 c 256,12,13
EndSplineSet
EndChar

StartChar: semicolon
Encoding: 59 59 30
Width: 229
GlyphClass: 1
Flags: W
LayerCount: 2
Fore
SplineSet
112 420 m 256,0,1
 112 405 112 405 101.5 394.5 c 128,-1,2
 91 384 91 384 76 384 c 256,3,4
 61 384 61 384 50.5 394.5 c 128,-1,5
 40 405 40 405 40 420 c 256,6,7
 40 435 40 435 50.5 445.5 c 128,-1,8
 61 456 61 456 76 456 c 256,9,10
 91 456 91 456 101.5 445.5 c 128,-1,11
 112 435 112 435 112 420 c 256,0,1
107 -8 m 1,12,-1
 44 -71 l 1,13,-1
 44 48 l 1,14,-1
 83 48 l 2,15,16
 96 47 96 47 104 36 c 2,17,-1
 107 27 l 1,18,-1
 107 -8 l 1,12,-1
EndSplineSet
EndChar

StartChar: less
Encoding: 60 60 31
Width: 698
GlyphClass: 1
Flags: W
LayerCount: 2
Fore
SplineSet
604 268 m 1,0,-1
 21 532 l 1,1,-1
 604 800 l 1,2,-1
 556 700 l 1,3,-1
 197 532 l 1,4,-1
 556 368 l 1,5,-1
 604 268 l 1,0,-1
EndSplineSet
EndChar

StartChar: equal
Encoding: 61 61 32
Width: 544
GlyphClass: 1
Flags: W
LayerCount: 2
Fore
SplineSet
457 299 m 1,0,-1
 92 299 l 1,1,-1
 27 365 l 1,2,-1
 393 365 l 1,3,-1
 457 299 l 1,0,-1
455 99 m 1,4,-1
 92 99 l 1,5,-1
 27 165 l 1,6,-1
 393 165 l 1,7,-1
 455 99 l 1,4,-1
EndSplineSet
EndChar

StartChar: greater
Encoding: 62 62 33
Width: 697
GlyphClass: 1
Flags: W
LayerCount: 2
Fore
SplineSet
603 540 m 1,0,-1
 20 276 l 1,1,-1
 68 376 l 1,2,-1
 427 540 l 1,3,-1
 68 708 l 1,4,-1
 20 808 l 1,5,-1
 603 540 l 1,0,-1
EndSplineSet
EndChar

StartChar: question
Encoding: 63 63 34
Width: 449
GlyphClass: 1
Flags: W
LayerCount: 2
Fore
SplineSet
359 668 m 1,0,-1
 264 505 l 1,1,-1
 264 281 l 1,2,-1
 131 281 l 1,3,-1
 131 511 l 1,4,-1
 225 668 l 1,5,-1
 224 952 l 1,6,-1
 152 952 l 1,7,-1
 152 800 l 1,8,-1
 19 637 l 1,9,-1
 19 964 l 1,10,-1
 95 1069 l 1,11,-1
 275 1069 l 1,12,-1
 359 976 l 1,13,-1
 359 668 l 1,0,-1
245 115 m 1,14,-1
 129 3 l 1,15,-1
 129 244 l 1,16,-1
 203 244 l 1,17,-1
 245 245 l 1,18,-1
 245 115 l 1,14,-1
EndSplineSet
EndChar

StartChar: at
Encoding: 64 64 35
Width: 656
GlyphClass: 1
Flags: W
LayerCount: 2
Fore
SplineSet
568 339 m 0,0,1
 568 206 568 206 444 159 c 0,2,3
 419 150 419 150 391 145 c 128,-1,4
 363 140 363 140 320 140 c 0,5,6
 253 140 253 140 219 176 c 0,7,8
 210 188 210 188 199 212 c 1,9,-1
 199 276 l 2,10,11
 199 301 199 301 225 319 c 1,12,-1
 253 329 l 1,13,-1
 316 329 l 1,14,-1
 317 428 l 2,15,16
 317 436 317 436 315 439 c 0,17,18
 311 450 311 450 296 449 c 0,19,20
 284 449 284 449 277 439 c 2,21,-1
 273 428 l 1,22,-1
 273 396 l 1,23,-1
 200 332 l 1,24,-1
 199 428 l 2,25,26
 202 445 202 445 205 453 c 0,27,28
 217 480 217 480 252 480 c 2,29,-1
 340 481 l 2,30,31
 369 481 369 481 385 461 c 1,32,-1
 393 441 l 1,33,-1
 393 329 l 1,34,-1
 392 299 l 1,35,-1
 391 223 l 1,36,37
 418 235 418 235 432 247 c 0,38,39
 473 282 473 282 473 336 c 0,40,41
 473 423 473 423 443 479 c 0,42,43
 399 559 399 559 303 559 c 0,44,45
 203 559 203 559 149 481 c 0,46,47
 102 412 102 412 103 313 c 0,48,49
 103 217 103 217 163 142 c 128,-1,50
 223 67 223 67 311 67 c 0,51,52
 387 67 387 67 471 123 c 0,53,54
 499 142 499 142 540 180 c 1,55,56
 513 121 513 121 488 91 c 0,57,58
 413 2 413 2 303 1 c 0,59,60
 176 1 176 1 101.5 92 c 128,-1,61
 27 183 27 183 27 319 c 0,62,63
 27 451 27 451 103 542 c 128,-1,64
 179 633 179 633 300 633 c 0,65,66
 389 633 389 633 468 567 c 0,67,68
 568 483 568 483 568 339 c 0,0,1
317 297 m 1,69,-1
 296 297 l 1,70,-1
 285 293 l 2,71,72
 278 289 278 289 273 275 c 2,73,-1
 272 240 l 2,74,75
 276 231 276 231 280 227 c 2,76,-1
 292 219 l 1,77,-1
 316 220 l 1,78,-1
 317 297 l 1,69,-1
EndSplineSet
EndChar

StartChar: A
Encoding: 65 65 36
Width: 520
GlyphClass: 1
Flags: W
LayerCount: 2
Fore
SplineSet
431 0 m 1,0,-1
 291 0 l 1,1,-1
 291 476 l 1,2,-1
 212 476 l 1,3,-1
 212 0 l 1,4,-1
 73 0 l 1,5,-1
 73 927 l 1,6,-1
 213 1067 l 1,7,-1
 291 1067 l 1,8,-1
 431 927 l 1,9,-1
 431 0 l 1,0,-1
291 564 m 1,10,-1
 291 993 l 1,11,-1
 213 993 l 1,12,-1
 213 564 l 1,13,-1
 291 564 l 1,10,-1
EndSplineSet
EndChar

StartChar: B
Encoding: 66 66 37
Width: 508
GlyphClass: 1
Flags: W
LayerCount: 2
Fore
SplineSet
411 632 m 1,0,-1
 323 544 l 1,1,-1
 411 456 l 1,2,-1
 411 140 l 1,3,-1
 271 0 l 1,4,-1
 47 0 l 1,5,-1
 47 1067 l 1,6,-1
 271 1067 l 1,7,-1
 411 927 l 1,8,-1
 411 632 l 1,0,-1
271 588 m 1,9,-1
 271 983 l 1,10,-1
 184 983 l 1,11,-1
 184 588 l 1,12,-1
 271 588 l 1,9,-1
271 81 m 1,13,-1
 271 500 l 1,14,-1
 187 500 l 1,15,-1
 187 81 l 1,16,-1
 271 81 l 1,13,-1
EndSplineSet
EndChar

StartChar: C
Encoding: 67 67 38
Width: 461
GlyphClass: 1
Flags: W
LayerCount: 2
Fore
SplineSet
380 64 m 1,0,-1
 380 0 l 1,1,-1
 36 0 l 1,2,-1
 36 932 l 1,3,-1
 171 1067 l 1,4,-1
 380 1067 l 1,5,-1
 380 999 l 1,6,-1
 171 999 l 1,7,-1
 171 64 l 1,8,-1
 380 64 l 1,0,-1
EndSplineSet
EndChar

StartChar: D
Encoding: 68 68 39
Width: 492
GlyphClass: 1
Flags: W
LayerCount: 2
Fore
SplineSet
401 140 m 1,0,-1
 261 0 l 1,1,-1
 39 0 l 1,2,-1
 39 1067 l 1,3,-1
 261 1067 l 1,4,-1
 401 927 l 1,5,-1
 401 140 l 1,0,-1
261 96 m 1,6,-1
 261 968 l 1,7,-1
 180 968 l 1,8,-1
 180 96 l 1,9,-1
 261 96 l 1,6,-1
EndSplineSet
EndChar

StartChar: E
Encoding: 69 69 40
Width: 456
GlyphClass: 1
Flags: W
LayerCount: 2
Fore
SplineSet
376 76 m 1,0,-1
 376 0 l 1,1,-1
 43 0 l 1,2,-1
 43 935 l 1,3,-1
 175 1067 l 1,4,-1
 376 1067 l 1,5,-1
 376 991 l 1,6,-1
 175 991 l 1,7,-1
 175 579 l 1,8,-1
 315 579 l 1,9,-1
 315 499 l 1,10,-1
 175 499 l 1,11,-1
 175 76 l 1,12,-1
 376 76 l 1,0,-1
EndSplineSet
EndChar

StartChar: F
Encoding: 70 70 41
Width: 417
GlyphClass: 1
Flags: W
LayerCount: 2
Fore
SplineSet
400 1067 m 1,0,-1
 400 972 l 1,1,-1
 180 972 l 1,2,-1
 180 591 l 1,3,-1
 317 591 l 1,4,-1
 317 511 l 1,5,-1
 181 511 l 1,6,-1
 181 0 l 1,7,-1
 43 0 l 1,8,-1
 43 929 l 1,9,-1
 180 1067 l 1,10,-1
 400 1067 l 1,0,-1
EndSplineSet
EndChar

StartChar: G
Encoding: 71 71 42
Width: 461
GlyphClass: 1
Flags: W
LayerCount: 2
Fore
SplineSet
380 137 m 1,0,-1
 243 0 l 1,1,-1
 33 0 l 1,2,-1
 33 932 l 1,3,-1
 168 1067 l 1,4,-1
 380 1067 l 1,5,-1
 380 1008 l 1,6,-1
 168 1008 l 1,7,-1
 168 83 l 1,8,-1
 269 83 l 1,9,-1
 269 497 l 1,10,-1
 219 497 l 1,11,-1
 219 548 l 1,12,-1
 380 548 l 1,13,-1
 380 137 l 1,0,-1
EndSplineSet
EndChar

StartChar: H
Encoding: 72 72 43
Width: 458
GlyphClass: 1
Flags: W
LayerCount: 2
Fore
SplineSet
380 133 m 1,0,-1
 247 0 l 1,1,-1
 247 441 l 1,2,-1
 171 441 l 1,3,-1
 171 0 l 1,4,-1
 35 0 l 1,5,-1
 35 931 l 1,6,-1
 171 1067 l 1,7,-1
 171 536 l 1,8,-1
 245 536 l 1,9,-1
 245 1067 l 1,10,-1
 380 1067 l 1,11,-1
 380 133 l 1,0,-1
EndSplineSet
EndChar

StartChar: I
Encoding: 73 73 44
Width: 246
GlyphClass: 1
Flags: W
LayerCount: 2
Fore
SplineSet
156 121 m 1,0,-1
 37 3 l 1,1,-1
 37 948 l 1,2,-1
 156 1065 l 1,3,-1
 156 121 l 1,0,-1
EndSplineSet
EndChar

StartChar: J
Encoding: 74 74 45
Width: 458
GlyphClass: 1
Flags: W
LayerCount: 2
Fore
SplineSet
377 132 m 1,0,-1
 245 0 l 1,1,-1
 168 0 l 1,2,-1
 36 132 l 1,3,-1
 36 311 l 1,4,-1
 168 443 l 1,5,-1
 168 63 l 1,6,-1
 245 63 l 1,7,-1
 245 933 l 1,8,-1
 377 1065 l 1,9,-1
 377 132 l 1,0,-1
EndSplineSet
EndChar

StartChar: K
Encoding: 75 75 46
Width: 468
GlyphClass: 1
Flags: W
LayerCount: 2
Fore
SplineSet
380 597 m 1,0,-1
 292 509 l 1,1,-1
 380 421 l 1,2,-1
 380 137 l 1,3,-1
 247 4 l 1,4,-1
 247 465 l 1,5,-1
 169 465 l 1,6,-1
 169 0 l 1,7,-1
 36 0 l 1,8,-1
 36 1067 l 1,9,-1
 169 1067 l 1,10,-1
 169 555 l 1,11,-1
 247 555 l 1,12,-1
 247 933 l 1,13,-1
 380 1067 l 1,14,-1
 380 597 l 1,0,-1
EndSplineSet
EndChar

StartChar: L
Encoding: 76 76 47
Width: 497
GlyphClass: 1
Flags: W
LayerCount: 2
Fore
SplineSet
444 0 m 1,0,-1
 53 0 l 1,1,-1
 53 933 l 1,2,-1
 187 1067 l 1,3,-1
 187 93 l 1,4,-1
 444 93 l 1,5,-1
 444 0 l 1,0,-1
EndSplineSet
EndChar

StartChar: M
Encoding: 77 77 48
Width: 676
GlyphClass: 1
Flags: W
LayerCount: 2
Fore
SplineSet
647 0 m 1,0,-1
 513 0 l 1,1,-1
 513 967 l 1,2,-1
 377 831 l 1,3,-1
 377 133 l 1,4,-1
 244 0 l 1,5,-1
 244 1000 l 1,6,-1
 168 1000 l 1,7,-1
 168 0 l 1,8,-1
 32 0 l 1,9,-1
 32 931 l 1,10,-1
 168 1067 l 1,11,-1
 377 1067 l 1,12,-1
 377 931 l 1,13,-1
 513 1067 l 1,14,-1
 647 1067 l 1,15,-1
 647 0 l 1,0,-1
EndSplineSet
EndChar

StartChar: N
Encoding: 78 78 49
Width: 466
GlyphClass: 1
Flags: W
LayerCount: 2
Fore
SplineSet
385 0 m 1,0,-1
 252 0 l 1,1,-1
 252 945 l 1,2,-1
 172 945 l 1,3,-1
 172 0 l 1,4,-1
 39 0 l 1,5,-1
 39 933 l 1,6,-1
 172 1067 l 1,7,-1
 385 1067 l 1,8,-1
 385 0 l 1,0,-1
EndSplineSet
EndChar

StartChar: O
Encoding: 79 79 50
Width: 465
GlyphClass: 1
Flags: W
LayerCount: 2
Fore
SplineSet
425 139 m 1,0,-1
 287 0 l 1,1,-1
 175 0 l 1,2,-1
 36 139 l 1,3,-1
 36 928 l 1,4,-1
 175 1067 l 1,5,-1
 287 1067 l 1,6,-1
 425 928 l 1,7,-1
 425 139 l 1,0,-1
287 103 m 1,8,-1
 287 969 l 1,9,-1
 175 969 l 1,10,-1
 175 103 l 1,11,-1
 287 103 l 1,8,-1
EndSplineSet
EndChar

StartChar: P
Encoding: 80 80 51
Width: 468
GlyphClass: 1
Flags: W
LayerCount: 2
Fore
SplineSet
381 616 m 1,0,-1
 252 487 l 1,1,-1
 172 487 l 1,2,-1
 172 0 l 1,3,-1
 40 0 l 1,4,-1
 40 1067 l 1,5,-1
 249 1067 l 1,6,-1
 381 935 l 1,7,-1
 381 616 l 1,0,-1
249 576 m 1,8,-1
 249 977 l 1,9,-1
 172 977 l 1,10,-1
 172 576 l 1,11,-1
 249 576 l 1,8,-1
EndSplineSet
EndChar

StartChar: Q
Encoding: 81 81 52
Width: 460
GlyphClass: 1
Flags: W
LayerCount: 2
Fore
SplineSet
460 3 m 1,0,-1
 348 61 l 1,1,-1
 287 0 l 1,2,-1
 167 0 l 1,3,-1
 31 136 l 1,4,-1
 31 192 l 1,5,-1
 -47 115 l 1,6,-1
 -47 287 l 1,7,-1
 31 247 l 1,8,-1
 31 931 l 1,9,-1
 167 1067 l 1,10,-1
 287 1067 l 1,11,-1
 423 931 l 1,12,-1
 423 136 l 1,13,-1
 371 92 l 1,14,-1
 460 3 l 1,0,-1
287 135 m 1,15,-1
 287 1000 l 1,16,-1
 167 1000 l 1,17,-1
 167 196 l 1,18,-1
 287 135 l 1,15,-1
287 93 m 1,19,-1
 167 147 l 1,20,-1
 167 67 l 1,21,-1
 287 67 l 1,22,-1
 287 93 l 1,19,-1
EndSplineSet
EndChar

StartChar: R
Encoding: 82 82 53
Width: 465
GlyphClass: 1
Flags: W
LayerCount: 2
Fore
SplineSet
384 0 m 1,0,-1
 252 0 l 1,1,-1
 252 472 l 1,2,-1
 176 472 l 1,3,-1
 176 0 l 1,4,-1
 44 0 l 1,5,-1
 44 1067 l 1,6,-1
 252 1067 l 1,7,-1
 384 935 l 1,8,-1
 384 600 l 1,9,-1
 300 516 l 1,10,-1
 384 432 l 1,11,-1
 384 0 l 1,0,-1
252 559 m 1,12,-1
 252 977 l 1,13,-1
 176 977 l 1,14,-1
 176 559 l 1,15,-1
 252 559 l 1,12,-1
EndSplineSet
EndChar

StartChar: S
Encoding: 83 83 54
Width: 462
GlyphClass: 1
Flags: W
LayerCount: 2
Fore
SplineSet
376 132 m 1,0,-1
 244 0 l 1,1,-1
 36 0 l 1,2,-1
 36 227 l 1,3,-1
 169 360 l 1,4,-1
 169 67 l 1,5,-1
 244 67 l 1,6,-1
 244 513 l 1,7,-1
 36 513 l 1,8,-1
 36 932 l 1,9,-1
 171 1067 l 1,10,-1
 376 1067 l 1,11,-1
 376 843 l 1,12,-1
 244 711 l 1,13,-1
 244 997 l 1,14,-1
 171 997 l 1,15,-1
 171 583 l 1,16,-1
 244 583 l 1,17,-1
 376 451 l 1,18,-1
 376 132 l 1,0,-1
EndSplineSet
EndChar

StartChar: T
Encoding: 84 84 55
Width: 453
GlyphClass: 1
Flags: W
LayerCount: 2
Fore
SplineSet
447 1067 m 1,0,-1
 447 949 l 1,1,-1
 297 949 l 1,2,-1
 297 0 l 1,3,-1
 164 0 l 1,4,-1
 164 949 l 1,5,-1
 7 949 l 1,6,-1
 7 1067 l 1,7,-1
 447 1067 l 1,0,-1
EndSplineSet
EndChar

StartChar: U
Encoding: 85 85 56
Width: 476
GlyphClass: 1
Flags: W
LayerCount: 2
Fore
SplineSet
397 0 m 1,0,-1
 53 0 l 1,1,-1
 53 932 l 1,2,-1
 188 1067 l 1,3,-1
 188 92 l 1,4,-1
 263 92 l 1,5,-1
 263 932 l 1,6,-1
 397 1067 l 1,7,-1
 397 0 l 1,0,-1
EndSplineSet
EndChar

StartChar: V
Encoding: 86 86 57
Width: 460
GlyphClass: 1
Flags: W
LayerCount: 2
Fore
SplineSet
381 133 m 1,0,-1
 248 0 l 1,1,-1
 167 0 l 1,2,-1
 33 133 l 1,3,-1
 33 936 l 1,4,-1
 164 1067 l 1,5,-1
 164 80 l 1,6,-1
 248 80 l 1,7,-1
 248 933 l 1,8,-1
 381 1067 l 1,9,-1
 381 133 l 1,0,-1
EndSplineSet
EndChar

StartChar: W
Encoding: 87 87 58
Width: 662
GlyphClass: 1
Flags: W
LayerCount: 2
Fore
SplineSet
581 0 m 1,0,-1
 169 0 l 1,1,-1
 35 135 l 1,2,-1
 35 932 l 1,3,-1
 169 1067 l 1,4,-1
 169 80 l 1,5,-1
 244 80 l 1,6,-1
 244 936 l 1,7,-1
 375 1067 l 1,8,-1
 375 80 l 1,9,-1
 451 80 l 1,10,-1
 451 936 l 1,11,-1
 581 1067 l 1,12,-1
 581 0 l 1,0,-1
EndSplineSet
EndChar

StartChar: X
Encoding: 88 88 59
Width: 462
GlyphClass: 1
Flags: W
LayerCount: 2
Fore
SplineSet
403 135 m 1,0,-1
 269 1 l 1,1,-1
 269 388 l 1,2,-1
 192 465 l 1,3,-1
 192 136 l 1,4,-1
 59 3 l 1,5,-1
 59 388 l 1,6,-1
 171 500 l 1,7,-1
 59 612 l 1,8,-1
 59 933 l 1,9,-1
 192 1067 l 1,10,-1
 192 612 l 1,11,-1
 269 535 l 1,12,-1
 269 936 l 1,13,-1
 403 1069 l 1,14,-1
 403 612 l 1,15,-1
 291 500 l 1,16,-1
 403 388 l 1,17,-1
 403 135 l 1,0,-1
EndSplineSet
EndChar

StartChar: Y
Encoding: 89 89 60
Width: 444
GlyphClass: 1
Flags: W
LayerCount: 2
Fore
SplineSet
384 633 m 1,0,-1
 289 539 l 1,1,-1
 289 129 l 1,2,-1
 159 -1 l 1,3,-1
 159 541 l 1,4,-1
 61 639 l 1,5,-1
 61 943 l 1,6,-1
 185 1067 l 1,7,-1
 185 589 l 1,8,-1
 260 589 l 1,9,-1
 260 943 l 1,10,-1
 384 1067 l 1,11,-1
 384 633 l 1,0,-1
EndSplineSet
EndChar

StartChar: Z
Encoding: 90 90 61
Width: 460
GlyphClass: 1
Flags: W
LayerCount: 2
Fore
SplineSet
389 1065 m 1,0,-1
 181 135 l 1,1,-1
 252 135 l 1,2,-1
 387 -1 l 1,3,-1
 25 -1 l 1,4,-1
 231 935 l 1,5,-1
 153 935 l 1,6,-1
 25 1065 l 1,7,-1
 389 1065 l 1,0,-1
EndSplineSet
EndChar

StartChar: bracketleft
Encoding: 91 91 62
Width: 360
GlyphClass: 1
Flags: W
LayerCount: 2
Fore
SplineSet
244 -1 m 1,0,-1
 23 -1 l 1,1,-1
 23 1069 l 1,2,-1
 244 1069 l 1,3,-1
 244 984 l 1,4,-1
 137 984 l 1,5,-1
 137 87 l 1,6,-1
 244 87 l 1,7,-1
 244 -1 l 1,0,-1
EndSplineSet
EndChar

StartChar: backslash
Encoding: 92 92 63
Width: 573
GlyphClass: 1
Flags: W
LayerCount: 2
Fore
SplineSet
457 0 m 1,0,-1
 375 0 l 1,1,-1
 24 1068 l 1,2,-1
 107 1068 l 1,3,-1
 457 0 l 1,0,-1
EndSplineSet
EndChar

StartChar: bracketright
Encoding: 93 93 64
Width: 360
GlyphClass: 1
Flags: W
LayerCount: 2
Fore
SplineSet
248 -1 m 1,0,-1
 20 -1 l 1,1,-1
 20 87 l 1,2,-1
 127 87 l 1,3,-1
 127 984 l 1,4,-1
 20 984 l 1,5,-1
 20 1069 l 1,6,-1
 248 1069 l 1,7,-1
 248 -1 l 1,0,-1
EndSplineSet
EndChar

StartChar: asciicircum
Encoding: 94 94 65
Width: 393
GlyphClass: 1
Flags: W
LayerCount: 2
Fore
SplineSet
309 905 m 1,0,-1
 253 905 l 1,1,-1
 160 999 l 1,2,-1
 65 905 l 1,3,-1
 11 905 l 1,4,-1
 160 1055 l 1,5,-1
 309 905 l 1,0,-1
EndSplineSet
EndChar

StartChar: underscore
Encoding: 95 95 66
Width: 726
GlyphClass: 1
Flags: W
LayerCount: 2
Fore
SplineSet
725 -208 m 1,0,-1
 0 -208 l 1,1,-1
 0 -141 l 1,2,-1
 725 -141 l 1,3,-1
 725 -208 l 1,0,-1
EndSplineSet
EndChar

StartChar: grave
Encoding: 96 96 67
Width: 300
GlyphClass: 1
Flags: W
LayerCount: 2
Fore
SplineSet
171 956 m 1,0,-1
 31 1020 l 1,1,-1
 31 1063 l 1,2,-1
 83 1063 l 1,3,-1
 171 956 l 1,0,-1
EndSplineSet
EndChar

StartChar: a
Encoding: 97 97 68
Width: 450
GlyphClass: 1
Flags: W
LayerCount: 2
Fore
SplineSet
372 453 m 1,0,-1
 372 0 l 1,1,-1
 164 0 l 1,2,-1
 28 136 l 1,3,-1
 28 332 l 1,4,-1
 237 332 l 1,5,-1
 237 533 l 1,6,-1
 28 533 l 1,7,-1
 28 588 l 1,8,-1
 237 588 l 1,9,-1
 372 453 l 1,0,-1
237 59 m 1,10,-1
 237 279 l 1,11,-1
 165 279 l 1,12,-1
 165 59 l 1,13,-1
 237 59 l 1,10,-1
EndSplineSet
EndChar

StartChar: b
Encoding: 98 98 69
Width: 454
GlyphClass: 1
Flags: W
LayerCount: 2
Fore
SplineSet
368 135 m 1,0,-1
 233 0 l 1,1,-1
 25 0 l 1,2,-1
 25 768 l 1,3,-1
 159 901 l 1,4,-1
 159 592 l 1,5,-1
 233 592 l 1,6,-1
 368 457 l 1,7,-1
 368 135 l 1,0,-1
233 69 m 1,8,-1
 233 524 l 1,9,-1
 161 524 l 1,10,-1
 161 69 l 1,11,-1
 233 69 l 1,8,-1
EndSplineSet
EndChar

StartChar: c
Encoding: 99 99 70
Width: 466
GlyphClass: 1
Flags: W
LayerCount: 2
Fore
SplineSet
371 61 m 1,0,-1
 371 0 l 1,1,-1
 165 0 l 1,2,-1
 28 137 l 1,3,-1
 29 455 l 1,4,-1
 165 592 l 1,5,-1
 353 592 l 1,6,-1
 353 536 l 1,7,-1
 165 536 l 1,8,-1
 165 61 l 1,9,-1
 371 61 l 1,0,-1
EndSplineSet
EndChar

StartChar: d
Encoding: 100 100 71
Width: 473
GlyphClass: 1
Flags: W
LayerCount: 2
Fore
SplineSet
368 0 m 1,0,-1
 160 0 l 1,1,-1
 25 135 l 1,2,-1
 25 457 l 1,3,-1
 160 592 l 1,4,-1
 235 592 l 1,5,-1
 235 768 l 1,6,-1
 368 901 l 1,7,-1
 368 0 l 1,0,-1
235 77 m 1,8,-1
 235 532 l 1,9,-1
 160 532 l 1,10,-1
 160 77 l 1,11,-1
 235 77 l 1,8,-1
EndSplineSet
EndChar

StartChar: e
Encoding: 101 101 72
Width: 426
GlyphClass: 1
Flags: W
LayerCount: 2
Fore
SplineSet
333 121 m 1,0,-1
 212 0 l 1,1,-1
 141 0 l 1,2,-1
 21 120 l 1,3,-1
 21 460 l 1,4,-1
 147 585 l 1,5,-1
 217 585 l 1,6,-1
 332 471 l 1,7,-1
 332 265 l 1,8,-1
 141 265 l 1,9,-1
 141 57 l 1,10,-1
 212 57 l 1,11,-1
 333 179 l 1,12,-1
 333 121 l 1,0,-1
217 347 m 1,13,-1
 217 531 l 1,14,-1
 147 531 l 1,15,-1
 147 347 l 1,16,-1
 217 347 l 1,13,-1
EndSplineSet
EndChar

StartChar: f
Encoding: 102 102 73
Width: 253
GlyphClass: 1
Flags: W
LayerCount: 2
Fore
SplineSet
276 495 m 1,0,-1
 160 495 l 1,1,-1
 160 69 l 1,2,-1
 24 -67 l 1,3,-1
 24 764 l 1,4,-1
 160 900 l 1,5,-1
 272 900 l 1,6,-1
 272 820 l 1,7,-1
 160 820 l 1,8,-1
 160 552 l 1,9,-1
 219 552 l 1,10,-1
 276 495 l 1,0,-1
EndSplineSet
EndChar

StartChar: g
Encoding: 103 103 74
Width: 466
GlyphClass: 1
Flags: W
LayerCount: 2
Fore
SplineSet
373 0 m 1,0,-1
 373 -128 l 1,1,-1
 301 -200 l 1,2,-1
 99 -200 l 1,3,-1
 27 -128 l 1,4,-1
 239 -128 l 1,5,-1
 239 0 l 1,6,-1
 161 0 l 1,7,-1
 28 133 l 1,8,-1
 28 459 l 1,9,-1
 160 591 l 1,10,-1
 373 591 l 1,11,-1
 373 0 l 1,0,-1
236 69 m 1,12,-1
 236 524 l 1,13,-1
 161 524 l 1,14,-1
 161 69 l 1,15,-1
 236 69 l 1,12,-1
EndSplineSet
EndChar

StartChar: h
Encoding: 104 104 75
Width: 460
GlyphClass: 1
Flags: W
LayerCount: 2
Fore
SplineSet
368 133 m 1,0,-1
 235 0 l 1,1,-1
 235 516 l 1,2,-1
 159 516 l 1,3,-1
 159 132 l 1,4,-1
 25 -1 l 1,5,-1
 25 761 l 1,6,-1
 159 895 l 1,7,-1
 159 592 l 1,8,-1
 235 592 l 1,9,-1
 368 459 l 1,10,-1
 368 133 l 1,0,-1
EndSplineSet
EndChar

StartChar: i
Encoding: 105 105 76
Width: 260
GlyphClass: 1
Flags: W
LayerCount: 2
Fore
SplineSet
163 631 m 1,0,-1
 33 631 l 1,1,-1
 33 685 l 1,2,-1
 163 685 l 1,3,-1
 163 631 l 1,0,-1
164 131 m 1,4,-1
 33 0 l 1,5,-1
 33 592 l 1,6,-1
 164 592 l 1,7,-1
 164 131 l 1,4,-1
EndSplineSet
EndChar

StartChar: j
Encoding: 106 106 77
Width: 325
GlyphClass: 1
Flags: W
LayerCount: 2
Fore
SplineSet
243 624 m 1,0,-1
 135 624 l 1,1,-1
 135 679 l 1,2,-1
 243 679 l 1,3,-1
 243 624 l 1,0,-1
241 -161 m 1,4,-1
 136 -267 l 1,5,-1
 73 -267 l 1,6,-1
 -31 -163 l 1,7,-1
 -31 0 l 1,8,-1
 73 104 l 1,9,-1
 73 -208 l 1,10,-1
 136 -208 l 1,11,-1
 136 591 l 1,12,-1
 241 591 l 1,13,-1
 241 -161 l 1,4,-1
EndSplineSet
EndChar

StartChar: k
Encoding: 107 107 78
Width: 465
GlyphClass: 1
Flags: W
LayerCount: 2
Fore
SplineSet
371 125 m 1,0,-1
 237 -9 l 1,1,-1
 237 229 l 1,2,-1
 161 229 l 1,3,-1
 161 132 l 1,4,-1
 29 0 l 1,5,-1
 29 771 l 1,6,-1
 161 903 l 1,7,-1
 161 304 l 1,8,-1
 239 304 l 1,9,-1
 239 457 l 1,10,-1
 371 589 l 1,11,-1
 371 363 l 1,12,-1
 285 277 l 1,13,-1
 371 192 l 1,14,-1
 371 125 l 1,0,-1
EndSplineSet
EndChar

StartChar: l
Encoding: 108 108 79
Width: 252
GlyphClass: 1
Flags: W
LayerCount: 2
Fore
SplineSet
161 132 m 1,0,-1
 29 0 l 1,1,-1
 29 771 l 1,2,-1
 161 903 l 1,3,-1
 161 132 l 1,0,-1
EndSplineSet
EndChar

StartChar: m
Encoding: 109 109 80
Width: 625
GlyphClass: 1
Flags: W
LayerCount: 2
Fore
SplineSet
537 120 m 1,0,-1
 417 0 l 1,1,-1
 417 451 l 1,2,-1
 344 524 l 1,3,-1
 344 121 l 1,4,-1
 223 0 l 1,5,-1
 223 455 l 1,6,-1
 152 525 l 1,7,-1
 152 124 l 1,8,-1
 28 0 l 1,9,-1
 28 593 l 1,10,-1
 395 593 l 1,11,-1
 537 451 l 1,12,-1
 537 120 l 1,0,-1
EndSplineSet
EndChar

StartChar: n
Encoding: 110 110 81
Width: 440
GlyphClass: 1
Flags: W
LayerCount: 2
Fore
SplineSet
345 121 m 1,0,-1
 224 0 l 1,1,-1
 224 453 l 1,2,-1
 153 524 l 1,3,-1
 153 121 l 1,4,-1
 32 0 l 1,5,-1
 32 593 l 1,6,-1
 205 593 l 1,7,-1
 345 453 l 1,8,-1
 345 121 l 1,0,-1
EndSplineSet
EndChar

StartChar: o
Encoding: 111 111 82
Width: 453
GlyphClass: 1
Flags: W
LayerCount: 2
Fore
SplineSet
344 109 m 1,0,-1
 257 -1 l 1,1,-1
 112 -1 l 1,2,-1
 27 109 l 1,3,-1
 27 473 l 1,4,-1
 115 593 l 1,5,-1
 253 593 l 1,6,-1
 344 475 l 1,7,-1
 344 109 l 1,0,-1
223 72 m 1,8,-1
 223 515 l 1,9,-1
 187 515 l 1,10,-1
 149 515 l 1,11,-1
 149 72 l 1,12,-1
 187 72 l 1,13,-1
 223 72 l 1,8,-1
EndSplineSet
EndChar

StartChar: p
Encoding: 112 112 83
Width: 440
GlyphClass: 1
Flags: W
LayerCount: 2
Fore
SplineSet
347 124 m 1,0,-1
 223 0 l 1,1,-1
 149 0 l 1,2,-1
 149 -144 l 1,3,-1
 31 -263 l 1,4,-1
 31 593 l 1,5,-1
 223 593 l 1,6,-1
 347 469 l 1,7,-1
 347 124 l 1,0,-1
223 71 m 1,8,-1
 223 511 l 1,9,-1
 153 511 l 1,10,-1
 153 71 l 1,11,-1
 223 71 l 1,8,-1
EndSplineSet
EndChar

StartChar: q
Encoding: 113 113 84
Width: 458
GlyphClass: 1
Flags: W
LayerCount: 2
Fore
SplineSet
345 593 m 1,0,-1
 345 -263 l 1,1,-1
 225 -143 l 1,2,-1
 225 0 l 1,3,-1
 152 0 l 1,4,-1
 28 124 l 1,5,-1
 28 469 l 1,6,-1
 152 593 l 1,7,-1
 345 593 l 1,0,-1
221 71 m 1,8,-1
 221 511 l 1,9,-1
 152 511 l 1,10,-1
 152 71 l 1,11,-1
 221 71 l 1,8,-1
EndSplineSet
EndChar

StartChar: r
Encoding: 114 114 85
Width: 437
GlyphClass: 1
Flags: W
LayerCount: 2
Fore
SplineSet
367 400 m 1,0,-1
 247 280 l 1,1,-1
 247 519 l 1,2,-1
 176 519 l 1,3,-1
 176 123 l 1,4,-1
 53 0 l 1,5,-1
 53 591 l 1,6,-1
 247 591 l 1,7,-1
 367 471 l 1,8,-1
 367 400 l 1,0,-1
EndSplineSet
EndChar

StartChar: s
Encoding: 115 115 86
Width: 436
GlyphClass: 1
Flags: W
LayerCount: 2
Fore
SplineSet
336 124 m 1,0,-1
 212 0 l 1,1,-1
 20 0 l 1,2,-1
 20 96 l 1,3,-1
 143 219 l 1,4,-1
 143 39 l 1,5,-1
 212 39 l 1,6,-1
 212 287 l 1,7,-1
 20 287 l 1,8,-1
 20 469 l 1,9,-1
 144 593 l 1,10,-1
 336 593 l 1,11,-1
 336 533 l 1,12,-1
 205 403 l 1,13,-1
 205 555 l 1,14,-1
 179 555 l 1,15,-1
 144 555 l 1,16,-1
 144 365 l 1,17,-1
 144 325 l 1,18,-1
 212 325 l 1,19,-1
 336 201 l 1,20,-1
 336 124 l 1,0,-1
EndSplineSet
EndChar

StartChar: t
Encoding: 116 116 87
Width: 253
GlyphClass: 1
Flags: W
LayerCount: 2
Fore
SplineSet
240 537 m 1,0,-1
 159 537 l 1,1,-1
 159 123 l 1,2,-1
 36 0 l 1,3,-1
 36 537 l 1,4,-1
 7 537 l 1,5,-1
 -49 591 l 1,6,-1
 33 591 l 1,7,-1
 33 776 l 1,8,-1
 159 899 l 1,9,-1
 159 591 l 1,10,-1
 187 591 l 1,11,-1
 240 537 l 1,0,-1
EndSplineSet
EndChar

StartChar: u
Encoding: 117 117 88
Width: 396
GlyphClass: 1
Flags: W
LayerCount: 2
Fore
SplineSet
305 0 m 1,0,-1
 136 0 l 1,1,-1
 27 109 l 1,2,-1
 27 481 l 1,3,-1
 136 591 l 1,4,-1
 136 61 l 1,5,-1
 196 61 l 1,6,-1
 196 481 l 1,7,-1
 305 591 l 1,8,-1
 305 0 l 1,0,-1
EndSplineSet
EndChar

StartChar: v
Encoding: 118 118 89
Width: 397
GlyphClass: 1
Flags: W
LayerCount: 2
Fore
SplineSet
303 233 m 1,0,-1
 212 1 l 1,1,-1
 119 1 l 1,2,-1
 25 233 l 1,3,-1
 25 484 l 1,4,-1
 132 591 l 1,5,-1
 132 203 l 1,6,-1
 164 93 l 1,7,-1
 195 203 l 1,8,-1
 195 487 l 1,9,-1
 303 595 l 1,10,-1
 303 233 l 1,0,-1
EndSplineSet
EndChar

StartChar: w
Encoding: 119 119 90
Width: 561
GlyphClass: 1
Flags: W
LayerCount: 2
Fore
SplineSet
472 108 m 1,0,-1
 364 0 l 1,1,-1
 303 0 l 1,2,-1
 249 53 l 1,3,-1
 196 0 l 1,4,-1
 136 0 l 1,5,-1
 27 109 l 1,6,-1
 27 481 l 1,7,-1
 136 591 l 1,8,-1
 136 84 l 1,9,-1
 196 84 l 1,10,-1
 196 479 l 1,11,-1
 303 585 l 1,12,-1
 303 85 l 1,13,-1
 364 85 l 1,14,-1
 364 483 l 1,15,-1
 472 591 l 1,16,-1
 472 108 l 1,0,-1
EndSplineSet
EndChar

StartChar: x
Encoding: 120 120 91
Width: 394
GlyphClass: 1
Flags: W
LayerCount: 2
Fore
SplineSet
305 107 m 1,0,-1
 199 0 l 1,1,-1
 199 177 l 1,2,-1
 136 240 l 1,3,-1
 136 108 l 1,4,-1
 28 0 l 1,5,-1
 28 203 l 1,6,-1
 97 272 l 1,7,-1
 28 341 l 1,8,-1
 28 485 l 1,9,-1
 133 591 l 1,10,-1
 133 355 l 1,11,-1
 196 292 l 1,12,-1
 196 483 l 1,13,-1
 305 592 l 1,14,-1
 305 337 l 1,15,-1
 239 271 l 1,16,-1
 305 204 l 1,17,-1
 305 107 l 1,0,-1
EndSplineSet
EndChar

StartChar: y
Encoding: 121 121 92
Width: 449
GlyphClass: 1
Flags: W
LayerCount: 2
Fore
SplineSet
353 1 m 1,0,-1
 353 -200 l 1,1,-1
 121 -200 l 1,2,-1
 29 -108 l 1,3,-1
 227 -108 l 1,4,-1
 227 0 l 1,5,-1
 159 0 l 1,6,-1
 31 128 l 1,7,-1
 31 463 l 1,8,-1
 159 591 l 1,9,-1
 159 72 l 1,10,-1
 229 72 l 1,11,-1
 229 467 l 1,12,-1
 353 591 l 1,13,-1
 353 1 l 1,0,-1
EndSplineSet
EndChar

StartChar: z
Encoding: 122 122 93
Width: 357
GlyphClass: 1
Flags: W
LayerCount: 2
Fore
SplineSet
280 591 m 1,0,-1
 139 89 l 1,1,-1
 189 89 l 1,2,-1
 279 -1 l 1,3,-1
 17 -1 l 1,4,-1
 167 505 l 1,5,-1
 101 505 l 1,6,-1
 17 591 l 1,7,-1
 280 591 l 1,0,-1
EndSplineSet
EndChar

StartChar: braceleft
Encoding: 123 123 94
Width: 408
GlyphClass: 1
Flags: W
LayerCount: 2
Fore
SplineSet
327 -59 m 1,0,1
 176 -59 176 -59 120 144 c 0,2,3
 92 248 92 248 92 424 c 0,4,5
 92 484 92 484 59 512 c 0,6,7
 51 519 51 519 25 527 c 1,8,9
 64 531 64 531 81 579 c 1,10,-1
 92 627 l 1,11,12
 92 855 92 855 146 985 c 128,-1,13
 200 1115 200 1115 305 1115 c 1,14,-1
 321 1113 l 1,15,-1
 327 1112 l 1,16,17
 292 1083 292 1083 269 1008 c 1,18,-1
 256 940 l 1,19,-1
 256 681 l 2,20,21
 256 625 256 625 199 569 c 1,22,-1
 140 527 l 1,23,24
 196 516 196 516 232 441 c 1,25,-1
 256 369 l 1,26,-1
 256 116 l 2,27,28
 256 43 256 43 291 -15 c 0,29,30
 302 -34 302 -34 327 -59 c 1,0,1
EndSplineSet
EndChar

StartChar: bar
Encoding: 124 124 95
Width: 253
GlyphClass: 1
Flags: W
LayerCount: 2
Fore
SplineSet
157 143 m 1,0,-1
 24 -1 l 1,1,-1
 24 924 l 1,2,-1
 157 1069 l 1,3,-1
 157 143 l 1,0,-1
EndSplineSet
EndChar

StartChar: braceright
Encoding: 125 125 96
Width: 412
GlyphClass: 1
Flags: W
LayerCount: 2
Fore
SplineSet
328 527 m 1,0,1
 305 523 305 523 295 513 c 0,2,3
 260 486 260 486 260 424 c 0,4,5
 260 181 260 181 205 68 c 0,6,7
 145 -59 145 -59 27 -59 c 1,8,9
 50 -36 50 -36 61 -16 c 0,10,11
 97 43 97 43 97 116 c 2,12,-1
 97 369 l 2,13,14
 101 385 101 385 106.5 406 c 128,-1,15
 112 427 112 427 120 441 c 0,16,17
 153 514 153 514 212 527 c 1,18,19
 193 539 193 539 178 550 c 128,-1,20
 163 561 163 561 155 569 c 0,21,22
 98 624 98 624 97 681 c 2,23,-1
 97 940 l 1,24,-1
 92 980 l 1,25,26
 72 1073 72 1073 27 1112 c 1,27,-1
 47 1115 l 1,28,29
 90 1115 90 1115 127 1089 c 0,30,31
 183 1050 183 1050 217 956 c 0,32,33
 238 895 238 895 249 814 c 128,-1,34
 260 733 260 733 260 627 c 1,35,-1
 269 580 l 1,36,37
 287 532 287 532 328 527 c 1,0,1
EndSplineSet
EndChar

StartChar: asciitilde
Encoding: 126 126 97
Width: 472
GlyphClass: 1
Flags: W
LayerCount: 2
Fore
SplineSet
377 587 m 1,0,1
 361 543 361 543 345 519 c 0,2,3
 301 451 301 451 244 451 c 0,4,5
 200 451 200 451 174.5 477 c 128,-1,6
 149 503 149 503 111 507 c 0,7,8
 80 507 80 507 49 479 c 1,9,-1
 27 451 l 1,10,11
 35 495 35 495 43 520 c 0,12,13
 67 591 67 591 104 591 c 0,14,15
 124 591 124 591 170 563.5 c 128,-1,16
 216 536 216 536 248 536 c 0,17,18
 287 536 287 536 336 561 c 2,19,-1
 377 587 l 1,0,1
EndSplineSet
EndChar

StartChar: dagger
Encoding: 8224 8224 98
Width: 609
GlyphClass: 1
Flags: W
LayerCount: 2
Fore
SplineSet
0 721 m 1,0,-1
 124 685 l 1,1,-1
 292 711 l 1,2,-1
 239 497 l 1,3,-1
 305 0 l 1,4,-1
 369 497 l 1,5,-1
 317 711 l 1,6,-1
 492 685 l 1,7,-1
 609 720 l 1,8,-1
 491 757 l 1,9,-1
 317 735 l 1,10,-1
 367 941 l 1,11,-1
 304 1001 l 1,12,-1
 243 941 l 1,13,-1
 292 735 l 1,14,-1
 124 757 l 1,15,-1
 0 721 l 1,0,-1
EndSplineSet
EndChar

StartChar: degree
Encoding: 176 176 99
Width: 332
GlyphClass: 1
Flags: W
LayerCount: 2
Fore
SplineSet
243 825 m 1,0,1
 235 808 235 808 197 796 c 2,2,-1
 181 792 l 1,3,-1
 85 792 l 2,4,5
 66 792 66 792 55 796 c 0,6,7
 24 804 24 804 25 825 c 2,8,-1
 25 1028 l 1,9,10
 33 1043 33 1043 60 1055 c 2,11,-1
 85 1063 l 1,12,-1
 181 1063 l 1,13,-1
 212 1057 l 2,14,15
 241 1049 241 1049 243 1028 c 2,16,-1
 243 825 l 1,0,1
160 824 m 1,17,-1
 160 1029 l 1,18,-1
 159 1033 l 2,19,20
 152 1041 152 1041 133 1043 c 1,21,-1
 116 1039 l 2,22,23
 109 1034 109 1034 108 1029 c 2,24,-1
 108 824 l 1,25,-1
 112 817 l 2,26,27
 119 810 119 810 133 811 c 0,28,29
 146 811 146 811 155 817 c 2,30,-1
 160 824 l 1,17,-1
EndSplineSet
EndChar

StartChar: cent
Encoding: 162 162 100
Width: 457
GlyphClass: 1
Flags: W
LayerCount: 2
Fore
SplineSet
437 0 m 1,0,-1
 304 0 l 1,1,-1
 304 -75 l 1,2,-1
 221 -183 l 1,3,-1
 221 0 l 1,4,-1
 129 0 l 1,5,-1
 96 9 l 1,6,7
 21 41 21 41 21 133 c 2,8,-1
 21 456 l 2,9,10
 21 496 21 496 31 521 c 0,11,12
 51 586 51 586 113 587 c 2,13,-1
 221 587 l 1,14,-1
 221 664 l 1,15,-1
 304 768 l 1,16,-1
 304 591 l 1,17,-1
 368 591 l 1,18,-1
 437 509 l 1,19,-1
 304 509 l 1,20,-1
 304 80 l 1,21,-1
 368 80 l 1,22,-1
 437 0 l 1,0,-1
213 80 m 1,23,-1
 213 507 l 1,24,-1
 159 507 l 2,25,26
 140 507 140 507 134 496 c 128,-1,27
 128 485 128 485 125 465 c 2,28,-1
 125 455 l 1,29,-1
 127 121 l 2,30,31
 127 89 127 89 143 81 c 1,32,-1
 159 80 l 1,33,-1
 213 80 l 1,23,-1
EndSplineSet
EndChar

StartChar: sterling
Encoding: 163 163 101
Width: 446
GlyphClass: 1
Flags: W
LayerCount: 2
Fore
SplineSet
425 1 m 1,0,-1
 12 1 l 1,1,-1
 -49 75 l 1,2,-1
 28 75 l 1,3,-1
 28 483 l 1,4,-1
 -59 587 l 1,5,-1
 29 587 l 1,6,-1
 29 961 l 2,7,8
 29 1022 29 1022 83 1052 c 0,9,10
 100 1060 100 1060 137 1068 c 1,11,-1
 228 1068 l 2,12,13
 277 1068 277 1068 297 1016 c 1,14,-1
 305 964 l 1,15,16
 300 979 300 979 289 984 c 2,17,-1
 265 989 l 1,18,-1
 225 988 l 2,19,20
 194 988 194 988 185 963 c 2,21,-1
 181 937 l 1,22,-1
 181 587 l 1,23,-1
 249 587 l 1,24,-1
 324 496 l 1,25,-1
 181 496 l 1,26,-1
 181 79 l 1,27,-1
 361 79 l 1,28,-1
 425 1 l 1,0,-1
EndSplineSet
EndChar

StartChar: section
Encoding: 167 167 102
Width: 237
GlyphClass: 1
Flags: W
LayerCount: 2
Fore
SplineSet
183 315 m 1,0,-1
 119 251 l 1,1,-1
 119 367 l 1,2,-1
 109 384 l 2,3,4
 98 400 98 400 89 403 c 1,5,6
 84 398 84 398 83 393 c 2,7,-1
 81 384 l 1,8,-1
 81 316 l 1,9,-1
 17 251 l 1,10,-1
 17 375 l 2,11,12
 17 394 17 394 35 409 c 2,13,-1
 44 416 l 1,14,-1
 31 427 l 2,15,16
 20 440 20 440 17 459 c 2,17,-1
 17 547 l 1,18,-1
 80 608 l 1,19,-1
 80 467 l 1,20,-1
 88 449 l 2,21,22
 97 433 97 433 109 431 c 1,23,24
 114 436 114 436 116 439 c 2,25,-1
 117 448 l 1,26,-1
 117 544 l 1,27,-1
 183 608 l 1,28,-1
 183 456 l 2,29,30
 183 439 183 439 168 425 c 2,31,-1
 153 417 l 1,32,-1
 161 412 l 2,33,34
 181 396 181 396 183 375 c 2,35,-1
 183 315 l 1,0,-1
EndSplineSet
EndChar

StartChar: bullet
Encoding: 8226 8226 103
Width: 286
GlyphClass: 1
Flags: W
LayerCount: 2
Fore
SplineSet
192 456 m 0,0,1
 192 425 192 425 169.5 402.5 c 128,-1,2
 147 380 147 380 115 380 c 256,3,4
 83 380 83 380 60 400.5 c 128,-1,5
 37 421 37 421 37 456 c 0,6,7
 37 488 37 488 60 510.5 c 128,-1,8
 83 533 83 533 115 533 c 256,9,10
 147 533 147 533 169.5 510.5 c 128,-1,11
 192 488 192 488 192 456 c 0,0,1
EndSplineSet
EndChar

StartChar: paragraph
Encoding: 182 182 104
Width: 432
GlyphClass: 1
Flags: W
LayerCount: 2
Fore
SplineSet
368 701 m 1,0,-1
 336 668 l 1,1,-1
 301 668 l 1,2,-1
 301 -1 l 1,3,-1
 268 -33 l 1,4,-1
 268 668 l 1,5,-1
 205 668 l 1,6,-1
 205 -1 l 1,7,-1
 171 -39 l 1,8,-1
 171 357 l 1,9,10
 114 368 114 368 79 412 c 0,11,12
 39 460 39 460 39 539 c 0,13,14
 39 594 39 594 72 639 c 0,15,16
 116 702 116 702 203 701 c 2,17,-1
 368 701 l 1,0,-1
EndSplineSet
EndChar

StartChar: germandbls
Encoding: 223 223 105
Width: 636
GlyphClass: 1
Flags: W
LayerCount: 2
Fore
SplineSet
544 768 m 1,0,-1
 480 705 l 1,1,-1
 303 755 l 1,2,-1
 361 531 l 1,3,-1
 305 312 l 1,4,-1
 480 359 l 1,5,-1
 537 296 l 1,6,-1
 476 235 l 1,7,-1
 304 280 l 1,8,-1
 353 64 l 1,9,-1
 287 0 l 1,10,-1
 221 64 l 1,11,-1
 269 280 l 1,12,-1
 100 235 l 1,13,-1
 31 296 l 1,14,-1
 96 359 l 1,15,-1
 272 311 l 1,16,-1
 213 531 l 1,17,-1
 269 753 l 1,18,-1
 96 705 l 1,19,-1
 31 768 l 1,20,-1
 100 831 l 1,21,-1
 271 784 l 1,22,-1
 244 897 l 1,23,-1
 221 1000 l 1,24,-1
 288 1065 l 1,25,-1
 353 1000 l 1,26,-1
 305 784 l 1,27,-1
 476 831 l 1,28,-1
 544 768 l 1,0,-1
EndSplineSet
EndChar

StartChar: registered
Encoding: 174 174 106
Width: 469
GlyphClass: 1
Flags: W
LayerCount: 2
Fore
SplineSet
376 896 m 256,0,1
 376 824 376 824 326.5 774.5 c 128,-1,2
 277 725 277 725 205 725 c 256,3,4
 133 725 133 725 84 774.5 c 128,-1,5
 35 824 35 824 35 896 c 256,6,7
 35 968 35 968 84 1017.5 c 128,-1,8
 133 1067 133 1067 205 1067 c 256,9,10
 277 1067 277 1067 326.5 1017.5 c 128,-1,11
 376 968 376 968 376 896 c 256,0,1
359 896 m 256,12,13
 359 960 359 960 313.5 1004.5 c 128,-1,14
 268 1049 268 1049 205 1049 c 0,15,16
 141 1049 141 1049 96.5 1004.5 c 128,-1,17
 52 960 52 960 52 896 c 0,18,19
 52 833 52 833 96 788 c 128,-1,20
 140 743 140 743 205 743 c 0,21,22
 269 743 269 743 314 787.5 c 128,-1,23
 359 832 359 832 359 896 c 256,12,13
267 940 m 1,24,-1
 225 901 l 1,25,-1
 225 957 l 1,26,-1
 224 964 l 2,27,28
 221 968 221 968 212 971 c 2,29,-1
 200 971 l 1,30,-1
 200 813 l 1,31,-1
 157 772 l 1,32,-1
 157 964 l 1,33,-1
 135 988 l 1,34,-1
 239 988 l 1,35,-1
 251 983 l 2,36,37
 266 975 266 975 267 959 c 2,38,-1
 267 940 l 1,24,-1
EndSplineSet
EndChar

StartChar: copyright
Encoding: 169 169 107
Width: 469
GlyphClass: 1
Flags: W
LayerCount: 2
Fore
SplineSet
376 896 m 256,0,1
 376 824 376 824 326.5 774.5 c 128,-1,2
 277 725 277 725 205 725 c 256,3,4
 133 725 133 725 84 774.5 c 128,-1,5
 35 824 35 824 35 896 c 256,6,7
 35 968 35 968 84 1017.5 c 128,-1,8
 133 1067 133 1067 205 1067 c 256,9,10
 277 1067 277 1067 326.5 1017.5 c 128,-1,11
 376 968 376 968 376 896 c 256,0,1
359 896 m 256,12,13
 359 960 359 960 313.5 1004.5 c 128,-1,14
 268 1049 268 1049 205 1049 c 0,15,16
 141 1049 141 1049 96.5 1004.5 c 128,-1,17
 52 960 52 960 52 896 c 0,18,19
 52 833 52 833 96 788 c 128,-1,20
 140 743 140 743 205 743 c 0,21,22
 269 743 269 743 314 787.5 c 128,-1,23
 359 832 359 832 359 896 c 256,12,13
273 817 m 1,24,-1
 265 801 l 2,25,26
 253 784 253 784 237 781 c 2,27,-1
 215 780 l 1,28,-1
 195 780 l 2,29,30
 179 780 179 780 170 782 c 128,-1,31
 161 784 161 784 145 807 c 2,32,-1
 139 817 l 1,33,-1
 139 976 l 1,34,-1
 145 995 l 2,35,36
 154 1012 154 1012 176 1013 c 2,37,-1
 193 1015 l 1,38,-1
 213 1016 l 2,39,40
 228 1016 228 1016 236 1012.5 c 128,-1,41
 244 1009 244 1009 259 992 c 2,42,-1
 273 976 l 1,43,-1
 273 960 l 1,44,-1
 223 912 l 1,45,-1
 221 976 l 1,46,-1
 219 983 l 2,47,48
 215 991 215 991 208 991 c 256,49,50
 201 991 201 991 195 983 c 2,51,-1
 191 975 l 1,52,-1
 192 817 l 1,53,-1
 193 811 l 2,54,55
 197 803 197 803 207 803 c 0,56,57
 215 803 215 803 219 809 c 2,58,-1
 221 817 l 1,59,-1
 221 832 l 1,60,-1
 273 883 l 1,61,-1
 273 817 l 1,24,-1
EndSplineSet
EndChar

StartChar: trademark
Encoding: 8482 8482 108
Width: 605
GlyphClass: 1
Flags: W
LayerCount: 2
Fore
SplineSet
511 1024 m 2,0,-1
 509 816 l 1,1,-1
 445 747 l 1,2,-1
 447 1025 l 1,3,-1
 443 1035 l 2,4,5
 439 1043 439 1043 431 1045 c 2,6,-1
 411 1045 l 1,7,-1
 411 815 l 1,8,-1
 345 747 l 1,9,-1
 348 1027 l 2,10,11
 347 1034 347 1034 344 1037.5 c 128,-1,12
 341 1041 341 1041 331 1045 c 2,13,-1
 311 1045 l 1,14,-1
 312 811 l 1,15,-1
 249 752 l 1,16,-1
 249 1035 l 1,17,-1
 249 1067 l 1,18,-1
 463 1067 l 1,19,-1
 487 1061 l 2,20,21
 511 1051 511 1051 511 1024 c 2,0,-1
191 1068 m 1,22,-1
 191 1032 l 1,23,-1
 139 1032 l 1,24,-1
 139 803 l 1,25,-1
 89 753 l 1,26,-1
 89 1032 l 1,27,-1
 36 1032 l 1,28,-1
 36 1068 l 1,29,-1
 191 1068 l 1,22,-1
EndSplineSet
EndChar

StartChar: notequal
Encoding: 8800 8800 109
Width: 550
GlyphClass: 1
Flags: W
LayerCount: 2
Fore
SplineSet
457 85 m 1,0,-1
 207 85 l 1,1,-1
 165 0 l 1,2,-1
 104 0 l 1,3,-1
 148 85 l 1,4,-1
 92 85 l 1,5,-1
 27 152 l 1,6,-1
 181 152 l 1,7,-1
 249 285 l 1,8,-1
 92 285 l 1,9,-1
 27 352 l 1,10,-1
 283 352 l 1,11,-1
 320 425 l 1,12,-1
 376 425 l 1,13,-1
 340 352 l 1,14,-1
 393 352 l 1,15,-1
 457 285 l 1,16,-1
 307 285 l 1,17,-1
 240 152 l 1,18,-1
 393 152 l 1,19,-1
 457 85 l 1,0,-1
EndSplineSet
EndChar

StartChar: AE
Encoding: 198 198 110
Width: 792
GlyphClass: 1
Flags: W
LayerCount: 2
Fore
SplineSet
721 96 m 1,0,-1
 627 0 l 1,1,-1
 291 -3 l 1,2,-1
 291 492 l 1,3,-1
 212 492 l 1,4,-1
 212 141 l 1,5,-1
 75 4 l 1,6,-1
 75 467 l 1,7,-1
 -20 561 l 1,8,-1
 75 561 l 1,9,-1
 75 975 l 1,10,-1
 -16 1065 l 1,11,-1
 721 1065 l 1,12,-1
 644 989 l 1,13,-1
 521 989 l 1,14,-1
 521 585 l 1,15,-1
 692 585 l 1,16,-1
 605 497 l 1,17,-1
 521 497 l 1,18,-1
 521 96 l 1,19,-1
 721 96 l 1,0,-1
291 564 m 1,20,-1
 291 959 l 1,21,-1
 285 977 l 2,22,23
 277 994 277 994 256 996 c 2,24,-1
 213 996 l 1,25,-1
 213 564 l 1,26,-1
 291 564 l 1,20,-1
EndSplineSet
EndChar

StartChar: Oslash
Encoding: 216 216 111
Width: 465
GlyphClass: 1
Flags: W
LayerCount: 2
Fore
SplineSet
384 116 m 1,0,1
 379 84 379 84 377.5 78.5 c 128,-1,2
 376 73 376 73 369 59 c 0,3,4
 342 2 342 2 284 1 c 2,5,-1
 132 1 l 1,6,7
 99 9 99 9 84 19 c 0,8,9
 36 50 36 50 36 119 c 2,10,-1
 36 949 l 2,11,12
 40 986 40 986 48 1007 c 0,13,14
 72 1066 72 1066 133 1065 c 2,15,-1
 285 1065 l 1,16,17
 332 1057 332 1057 352 1037 c 0,18,19
 384 1005 384 1005 384 944 c 2,20,-1
 384 116 l 1,0,1
247 879 m 1,21,-1
 247 919 l 2,22,23
 247 934 247 934 243 944 c 0,24,25
 235 969 235 969 211 969 c 0,26,27
 192 969 192 969 180 944 c 1,28,-1
 175 919 l 1,29,-1
 175 513 l 1,30,-1
 247 879 l 1,21,-1
247 159 m 1,31,-1
 247 460 l 1,32,-1
 181 124 l 1,33,34
 189 104 189 104 211 103 c 0,35,36
 230 103 230 103 241 131 c 1,37,-1
 247 159 l 1,31,-1
EndSplineSet
EndChar

StartChar: infinity
Encoding: 8734 8734 112
Width: 822
GlyphClass: 1
Flags: W
LayerCount: 2
Fore
SplineSet
733 220 m 1,0,-1
 689 180 l 1,1,-1
 645 169 l 1,2,-1
 600 169 l 1,3,-1
 537 169 l 1,4,-1
 505 169 l 1,5,-1
 487 169 l 1,6,-1
 467 171 l 1,7,-1
 417 187 l 1,8,-1
 389 204 l 1,9,-1
 372 188 l 1,10,-1
 308 171 l 1,11,-1
 116 172 l 1,12,-1
 72 184 l 1,13,-1
 27 236 l 1,14,-1
 25 316 l 1,15,-1
 72 367 l 1,16,-1
 119 376 l 1,17,-1
 311 376 l 1,18,-1
 369 359 l 1,19,-1
 391 340 l 1,20,-1
 408 357 l 1,21,-1
 453 375 l 1,22,-1
 651 375 l 1,23,-1
 725 337 l 1,24,-1
 733 320 l 1,25,-1
 733 220 l 1,0,-1
693 272 m 1,26,-1
 684 289 l 1,27,-1
 663 295 l 1,28,-1
 447 295 l 1,29,-1
 424 289 l 1,30,-1
 413 279 l 1,31,-1
 459 255 l 1,32,-1
 480 248 l 1,33,-1
 661 248 l 1,34,-1
 683 253 l 1,35,-1
 693 272 l 1,26,-1
361 268 m 1,36,-1
 316 292 l 1,37,-1
 295 297 l 1,38,-1
 112 299 l 1,39,-1
 88 291 l 1,40,-1
 80 273 l 1,41,-1
 96 255 l 1,42,-1
 112 252 l 1,43,-1
 328 252 l 1,44,-1
 361 268 l 1,36,-1
EndSplineSet
EndChar

StartChar: plusminus
Encoding: 177 177 113
Width: 556
GlyphClass: 1
Flags: W
LayerCount: 2
Fore
SplineSet
468 371 m 1,0,-1
 276 371 l 1,1,-1
 276 176 l 1,2,-1
 204 244 l 1,3,-1
 204 371 l 1,4,-1
 99 371 l 1,5,-1
 29 439 l 1,6,-1
 205 439 l 1,7,-1
 205 637 l 1,8,-1
 272 573 l 1,9,-1
 271 439 l 1,10,-1
 401 439 l 1,11,-1
 468 371 l 1,0,-1
459 45 m 1,12,-1
 92 45 l 1,13,-1
 27 112 l 1,14,-1
 393 112 l 1,15,-1
 459 45 l 1,12,-1
EndSplineSet
EndChar

StartChar: lessequal
Encoding: 8804 8804 114
Width: 698
GlyphClass: 1
Flags: W
LayerCount: 2
Fore
SplineSet
604 268 m 1,0,-1
 21 532 l 1,1,-1
 604 800 l 1,2,-1
 556 700 l 1,3,-1
 197 532 l 1,4,-1
 556 368 l 1,5,-1
 604 268 l 1,0,-1
607 152 m 1,6,-1
 33 152 l 1,7,-1
 33 219 l 1,8,-1
 607 219 l 1,9,-1
 607 152 l 1,6,-1
EndSplineSet
EndChar

StartChar: greaterequal
Encoding: 8805 8805 115
Width: 698
GlyphClass: 1
Flags: W
LayerCount: 2
Fore
SplineSet
615 532 m 1,0,-1
 32 268 l 1,1,-1
 80 368 l 1,2,-1
 439 532 l 1,3,-1
 80 700 l 1,4,-1
 32 800 l 1,5,-1
 615 532 l 1,0,-1
603 152 m 1,6,-1
 29 152 l 1,7,-1
 29 219 l 1,8,-1
 603 219 l 1,9,-1
 603 152 l 1,6,-1
EndSplineSet
EndChar

StartChar: mu
Encoding: 181 181 116
Width: 396
GlyphClass: 1
Flags: W
LayerCount: 2
Fore
SplineSet
305 73 m 1,0,1
 298 48 298 48 292 37 c 0,2,3
 271 0 271 0 229 0 c 2,4,-1
 103 0 l 1,5,-1
 104 -59 l 1,6,-1
 27 -139 l 1,7,-1
 27 591 l 1,8,-1
 136 481 l 1,9,-1
 136 95 l 2,10,11
 139 78 139 78 145 69.5 c 128,-1,12
 151 61 151 61 167 61 c 0,13,14
 186 61 186 61 193 77 c 1,15,-1
 196 95 l 1,16,-1
 196 481 l 1,17,-1
 305 591 l 1,18,-1
 305 73 l 1,0,1
EndSplineSet
EndChar

StartChar: summation
Encoding: 931 931 117
Width: 509
GlyphClass: 1
Flags: W
LayerCount: 2
Fore
SplineSet
433 0 m 1,0,-1
 15 0 l 1,1,-1
 259 423 l 1,2,-1
 11 848 l 1,3,-1
 433 848 l 1,4,-1
 433 672 l 1,5,-1
 384 672 l 1,6,-1
 384 771 l 1,7,-1
 157 771 l 1,8,-1
 359 424 l 1,9,-1
 159 77 l 1,10,-1
 381 77 l 1,11,-1
 381 176 l 1,12,-1
 433 176 l 1,13,-1
 433 0 l 1,0,-1
EndSplineSet
EndChar

StartChar: product
Encoding: 8719 8719 118
Width: 706
GlyphClass: 1
Flags: W
LayerCount: 2
Fore
SplineSet
616 747 m 1,0,1
 620 739 620 739 601 720 c 0,2,3
 556 679 556 679 484 679 c 2,4,-1
 443 676 l 1,5,-1
 480 676 l 1,6,-1
 480 151 l 1,7,-1
 353 -1 l 1,8,-1
 353 669 l 1,9,-1
 280 665 l 1,10,-1
 280 159 l 1,11,-1
 151 -1 l 1,12,-1
 151 663 l 1,13,-1
 81 659 l 2,14,15
 53 655 53 655 21 639 c 1,16,17
 49 667 49 667 71 680 c 0,18,19
 134 721 134 721 185 721 c 2,20,-1
 523 724 l 1,21,-1
 561 728 l 2,22,23
 601 735 601 735 616 747 c 1,0,1
EndSplineSet
EndChar

StartChar: pi
Encoding: 960 960 119
Width: 424
GlyphClass: 1
Flags: W
LayerCount: 2
Fore
SplineSet
369 463 m 1,0,-1
 369 455 l 1,1,2
 344 422 344 422 291 421 c 2,3,-1
 265 420 l 1,4,-1
 288 420 l 1,5,-1
 288 105 l 1,6,-1
 212 13 l 1,7,-1
 212 416 l 1,8,-1
 168 413 l 1,9,-1
 168 109 l 1,10,-1
 91 13 l 1,11,-1
 91 412 l 1,12,13
 62 412 62 412 48 409 c 0,14,15
 33 409 33 409 13 397 c 1,16,-1
 43 423 l 1,17,18
 82 448 82 448 111 448 c 2,19,-1
 313 449 l 1,20,-1
 345 453 l 2,21,22
 362 456 362 456 369 463 c 1,0,-1
EndSplineSet
EndChar

StartChar: integral
Encoding: 8747 8747 120
Width: 273
GlyphClass: 1
Flags: W
LayerCount: 2
Fore
SplineSet
179 1056 m 1,0,1
 166 1036 166 1036 155 964 c 2,2,-1
 148 896 l 1,3,-1
 147 741 l 1,4,-1
 141 281 l 2,5,6
 141 188 141 188 84 85 c 0,7,8
 65 50 65 50 27 0 c 1,9,10
 58 77 58 77 75 191 c 2,11,-1
 85 289 l 1,12,-1
 85 304 l 1,13,-1
 85 339 l 1,14,-1
 85 383 l 1,15,-1
 85 429 l 1,16,-1
 85 475 l 1,17,-1
 85 517 l 1,18,-1
 85 556 l 1,19,-1
 85 591 l 1,20,-1
 85 621 l 1,21,-1
 85 649 l 1,22,-1
 85 673 l 1,23,-1
 85 693 l 1,24,-1
 85 711 l 1,25,-1
 85 725 l 1,26,-1
 84 769 l 1,27,-1
 84 827 l 2,28,29
 84 950 84 950 140 1028 c 0,30,31
 166 1064 166 1064 179 1056 c 1,0,1
EndSplineSet
EndChar

StartChar: ordfeminine
Encoding: 170 170 121
Width: 24
GlyphClass: 1
Flags: W
LayerCount: 2
Fore
SplineSet
16 1048 m 1,0,-1
 3 1035 l 1,1,-1
 3 1132 l 1,2,-1
 -5 1141 l 1,3,-1
 16 1141 l 1,4,-1
 16 1048 l 1,0,-1
EndSplineSet
EndChar

StartChar: ordmasculine
Encoding: 186 186 122
Width: 45
GlyphClass: 1
Flags: W
LayerCount: 2
Fore
SplineSet
36 1033 m 1,0,-1
 1 1033 l 1,1,-1
 1 1067 l 1,2,-1
 23 1099 l 1,3,-1
 23 1128 l 1,4,-1
 19 1132 l 1,5,-1
 16 1128 l 1,6,-1
 16 1116 l 1,7,-1
 3 1097 l 1,8,-1
 3 1128 l 2,9,10
 4 1135 4 1135 6.5 1137 c 128,-1,11
 9 1139 9 1139 11 1140 c 2,12,-1
 27 1140 l 2,13,14
 34 1136 34 1136 36 1128 c 2,15,-1
 36 1092 l 1,16,-1
 16 1061 l 1,17,-1
 16 1044 l 1,18,-1
 36 1044 l 1,19,-1
 36 1033 l 1,0,-1
EndSplineSet
EndChar

StartChar: Omega
Encoding: 937 937 123
Width: 45
GlyphClass: 1
Flags: W
LayerCount: 2
Fore
SplineSet
36 1060 m 2,0,1
 36 1052 36 1052 27 1047 c 1,2,-1
 11 1047 l 2,3,4
 3 1051 3 1051 1 1060 c 2,5,-1
 1 1068 l 1,6,-1
 15 1087 l 1,7,-1
 15 1060 l 1,8,-1
 19 1055 l 1,9,-1
 23 1060 l 1,10,-1
 23 1093 l 1,11,-1
 20 1099 l 1,12,-1
 11 1099 l 1,13,-1
 4 1108 l 1,14,-1
 19 1108 l 1,15,-1
 23 1115 l 1,16,-1
 23 1140 l 1,17,-1
 19 1145 l 1,18,-1
 15 1140 l 1,19,-1
 15 1132 l 1,20,-1
 1 1115 l 1,21,-1
 1 1140 l 2,22,23
 5 1152 5 1152 11 1153 c 2,24,-1
 27 1153 l 1,25,-1
 31 1152 l 1,26,-1
 36 1140 l 1,27,-1
 36 1115 l 2,28,29
 33 1106 33 1106 31 1103 c 2,30,-1
 36 1091 l 1,31,-1
 36 1060 l 2,0,1
EndSplineSet
EndChar

StartChar: questiondown
Encoding: 191 191 124
Width: 449
GlyphClass: 1
Flags: W
LayerCount: 2
Fore
SplineSet
245 989 m 2,0,1
 244 969 244 969 236 959 c 0,2,3
 224 943 224 943 203 939 c 2,4,-1
 129 939 l 1,5,-1
 129 1215 l 1,6,-1
 245 1068 l 1,7,-1
 245 989 l 2,0,1
359 89 m 2,8,9
 355 58 355 58 347 43 c 0,10,11
 327 -4 327 -4 275 -4 c 2,12,-1
 95 -4 l 2,13,14
 54 -4 54 -4 31 48 c 0,15,16
 24 64 24 64 19 101 c 1,17,-1
 19 428 l 1,18,-1
 152 273 l 1,19,-1
 152 163 l 2,20,21
 152 147 152 147 158 130 c 128,-1,22
 164 113 164 113 188 113 c 0,23,24
 211 113 211 113 223 136 c 1,25,-1
 227 160 l 1,26,-1
 225 397 l 1,27,-1
 131 555 l 1,28,-1
 131 901 l 1,29,-1
 264 901 l 1,30,-1
 264 560 l 1,31,-1
 359 397 l 1,32,-1
 359 89 l 2,8,9
EndSplineSet
EndChar

StartChar: exclamdown
Encoding: 161 161 125
Width: 220
GlyphClass: 1
Flags: W
LayerCount: 2
Fore
SplineSet
137 1021 m 2,0,1
 134 1002 134 1002 131 997 c 0,2,3
 118 972 118 972 93 972 c 2,4,-1
 20 972 l 1,5,-1
 20 1219 l 1,6,-1
 137 1069 l 1,7,-1
 137 1021 l 2,0,1
137 3 m 1,8,-1
 19 3 l 1,9,-1
 19 923 l 1,10,-1
 137 923 l 1,11,-1
 137 3 l 1,8,-1
EndSplineSet
EndChar

StartChar: logicalnot
Encoding: 172 172 126
Width: 413
GlyphClass: 1
Flags: W
LayerCount: 2
Fore
SplineSet
299 1068 m 1,0,-1
 61 0 l 1,1,-1
 25 0 l 1,2,-1
 263 1068 l 1,3,-1
 299 1068 l 1,0,-1
367 187 m 1,4,-1
 325 187 l 1,5,-1
 325 53 l 1,6,-1
 272 0 l 1,7,-1
 272 188 l 1,8,-1
 223 188 l 1,9,-1
 188 237 l 1,10,-1
 188 427 l 1,11,-1
 240 363 l 1,12,-1
 240 237 l 1,13,-1
 272 237 l 1,14,-1
 272 427 l 1,15,-1
 325 363 l 1,16,-1
 325 237 l 1,17,-1
 367 187 l 1,4,-1
140 692 m 2,18,19
 140 660 140 660 121 645 c 0,20,21
 118 642 118 642 101 639 c 2,22,-1
 40 639 l 2,23,24
 28 642 28 642 21 645 c 0,25,26
 2 660 2 660 3 695 c 2,27,-1
 3 724 l 1,28,-1
 56 800 l 1,29,-1
 56 695 l 1,30,-1
 57 684 l 2,31,32
 61 673 61 673 71 672 c 0,33,34
 79 672 79 672 84 683 c 2,35,-1
 87 695 l 1,36,-1
 87 825 l 1,37,-1
 87 835 l 2,38,39
 86 842 86 842 73 845 c 2,40,-1
 39 845 l 1,41,-1
 9 887 l 1,42,-1
 71 887 l 2,43,44
 78 888 78 888 82.5 890.5 c 128,-1,45
 87 893 87 893 87 909 c 2,46,-1
 87 1012 l 1,47,-1
 87 1017 l 2,48,49
 84 1033 84 1033 71 1033 c 0,50,51
 63 1033 63 1033 59 1024 c 2,52,-1
 56 1013 l 1,53,-1
 56 979 l 1,54,-1
 3 912 l 1,55,-1
 3 1013 l 1,56,-1
 3 1029 l 2,57,58
 7 1065 7 1065 40 1065 c 2,59,-1
 103 1065 l 1,60,-1
 113 1063 l 1,61,62
 138 1050 138 1050 139 1011 c 2,63,-1
 139 909 l 2,64,65
 139 881 139 881 128 869 c 2,66,-1
 116 861 l 1,67,68
 125 858 125 858 128 855 c 0,69,70
 140 843 140 843 140 816 c 2,71,-1
 140 692 l 2,18,19
EndSplineSet
EndChar

StartChar: Delta
Encoding: 8710 8710 127
Width: 373
GlyphClass: 1
Flags: W
LayerCount: 2
Fore
SplineSet
113 647 m 1,0,-1
 60 591 l 1,1,-1
 60 983 l 1,2,-1
 32 1019 l 1,3,-1
 113 1019 l 1,4,-1
 113 647 l 1,0,-1
299 1068 m 1,5,-1
 61 0 l 1,6,-1
 25 0 l 1,7,-1
 263 1068 l 1,8,-1
 299 1068 l 1,5,-1
331 -3 m 1,9,-1
 192 -3 l 1,10,-1
 192 131 l 1,11,-1
 277 259 l 1,12,-1
 277 376 l 1,13,-1
 276 385 l 2,14,15
 272 396 272 396 261 396 c 0,16,17
 253 396 253 396 249 387 c 2,18,-1
 247 377 l 1,19,-1
 247 329 l 1,20,-1
 193 252 l 1,21,-1
 193 376 l 2,22,23
 193 392 193 392 199 408.5 c 128,-1,24
 205 425 205 425 229 425 c 2,25,-1
 293 425 l 2,26,27
 305 422 305 422 312 419 c 0,28,29
 331 407 331 407 331 376 c 2,30,-1
 331 235 l 1,31,-1
 248 112 l 1,32,-1
 248 40 l 1,33,-1
 331 40 l 1,34,-1
 331 -3 l 1,9,-1
EndSplineSet
EndChar

StartChar: divide
Encoding: 247 247 129
Width: 497
GlyphClass: 1
Flags: W
LayerCount: 2
Fore
SplineSet
283 509 m 0,0,1
 283 477 283 477 264 456.5 c 128,-1,2
 245 436 245 436 217 436 c 0,3,4
 190 436 190 436 171 457.5 c 128,-1,5
 152 479 152 479 152 509 c 0,6,7
 152 541 152 541 170.5 562 c 128,-1,8
 189 583 189 583 217 583 c 0,9,10
 244 583 244 583 263.5 561.5 c 128,-1,11
 283 540 283 540 283 509 c 0,0,1
405 331 m 1,12,-1
 93 331 l 1,13,-1
 29 397 l 1,14,-1
 353 397 l 1,15,-1
 405 331 l 1,12,-1
293 200 m 0,16,17
 293 168 293 168 274.5 147.5 c 128,-1,18
 256 127 256 127 228 127 c 0,19,20
 203 127 203 127 182 147.5 c 128,-1,21
 161 168 161 168 161 200 c 0,22,23
 161 229 161 229 182 251 c 128,-1,24
 203 273 203 273 228 273 c 0,25,26
 255 273 255 273 274 252 c 128,-1,27
 293 231 293 231 293 200 c 0,16,17
EndSplineSet
EndChar

StartChar: ring
Encoding: 730 730 130
Width: 413
GlyphClass: 1
Flags: W
LayerCount: 2
Fore
SplineSet
113 647 m 1,0,-1
 60 591 l 1,1,-1
 60 983 l 1,2,-1
 32 1019 l 1,3,-1
 113 1019 l 1,4,-1
 113 647 l 1,0,-1
299 1068 m 1,5,-1
 61 0 l 1,6,-1
 25 0 l 1,7,-1
 263 1068 l 1,8,-1
 299 1068 l 1,5,-1
367 187 m 1,9,-1
 325 187 l 1,10,-1
 325 53 l 1,11,-1
 272 0 l 1,12,-1
 272 188 l 1,13,-1
 223 188 l 1,14,-1
 188 237 l 1,15,-1
 188 427 l 1,16,-1
 240 363 l 1,17,-1
 240 237 l 1,18,-1
 272 237 l 1,19,-1
 272 427 l 1,20,-1
 325 363 l 1,21,-1
 325 237 l 1,22,-1
 367 187 l 1,9,-1
EndSplineSet
EndChar
